<?xml version="1.0" encoding="utf-8" standalone="no"?>
<!DOCTYPE svg PUBLIC "-//W3C//DTD SVG 1.1//EN"
  "http://www.w3.org/Graphics/SVG/1.1/DTD/svg11.dtd">
<svg xmlns:xlink="http://www.w3.org/1999/xlink" width="648pt" height="669.6pt" viewBox="0 0 648 669.6" xmlns="http://www.w3.org/2000/svg" version="1.1">
 <metadata>
  <rdf:RDF xmlns:dc="http://purl.org/dc/elements/1.1/" xmlns:cc="http://creativecommons.org/ns#" xmlns:rdf="http://www.w3.org/1999/02/22-rdf-syntax-ns#">
   <cc:Work>
    <dc:type rdf:resource="http://purl.org/dc/dcmitype/StillImage"/>
    <dc:format>image/svg+xml</dc:format>
    <dc:creator>
     <cc:Agent>
      <dc:title>coilEM</dc:title>
     </cc:Agent>
    </dc:creator>
   </cc:Work>
  </rdf:RDF>
 </metadata>
 <defs>
  <style type="text/css">*{stroke-linejoin: round; stroke-linecap: butt}</style>
 </defs>
 <g id="figure_1">
  <g id="patch_1">
   <path d="M 0 669.6
L 648 669.6
L 648 0
L 0 0
z
" style="fill: #ffffff"/>
  </g>
  <g id="axes_1">
   <g id="patch_2">
    <path d="M 52.30649 189.84351
L 644.99976 189.84351
L 644.99976 18.118365
L 52.30649 18.118365
z
" style="fill: #ffffff"/>
   </g>
   <g id="matplotlib.axis_1">
    <g id="xtick_1">
     <g id="line2d_1">
      <path d="M 79.247093 189.84351
L 79.247093 18.118365
" clip-path="url(#pe63850b2f9)" style="fill: none; stroke: #b0b0b0; stroke-opacity: 0.25; stroke-width: 0.8; stroke-linecap: square"/>
     </g>
     <g id="line2d_2">
      <defs>
       <path id="m465cc1db8d" d="M 0 0
L 0 3.5
" style="stroke: #000000; stroke-width: 0.8"/>
      </defs>
      <g>
       <use xlink:href="#m465cc1db8d" x="79.247093" y="189.84351" style="stroke: #000000; stroke-width: 0.8"/>
      </g>
     </g>
     <g id="text_1">
      <!-- 0 -->
      <g transform="translate(76.065843 204.441947) scale(0.1 -0.1)">
       <defs>
        <path id="DejaVuSans-30" d="M 2034 4250
Q 1547 4250 1301 3770
Q 1056 3291 1056 2328
Q 1056 1369 1301 889
Q 1547 409 2034 409
Q 2525 409 2770 889
Q 3016 1369 3016 2328
Q 3016 3291 2770 3770
Q 2525 4250 2034 4250
z
M 2034 4750
Q 2819 4750 3233 4129
Q 3647 3509 3647 2328
Q 3647 1150 3233 529
Q 2819 -91 2034 -91
Q 1250 -91 836 529
Q 422 1150 422 2328
Q 422 3509 836 4129
Q 1250 4750 2034 4750
z
" transform="scale(0.015625)"/>
       </defs>
       <use xlink:href="#DejaVuSans-30"/>
      </g>
     </g>
    </g>
    <g id="xtick_2">
     <g id="line2d_3">
      <path d="M 155.674336 189.84351
L 155.674336 18.118365
" clip-path="url(#pe63850b2f9)" style="fill: none; stroke: #b0b0b0; stroke-opacity: 0.25; stroke-width: 0.8; stroke-linecap: square"/>
     </g>
     <g id="line2d_4">
      <g>
       <use xlink:href="#m465cc1db8d" x="155.674336" y="189.84351" style="stroke: #000000; stroke-width: 0.8"/>
      </g>
     </g>
     <g id="text_2">
      <!-- 50 -->
      <g transform="translate(149.311836 204.441947) scale(0.1 -0.1)">
       <defs>
        <path id="DejaVuSans-35" d="M 691 4666
L 3169 4666
L 3169 4134
L 1269 4134
L 1269 2991
Q 1406 3038 1543 3061
Q 1681 3084 1819 3084
Q 2600 3084 3056 2656
Q 3513 2228 3513 1497
Q 3513 744 3044 326
Q 2575 -91 1722 -91
Q 1428 -91 1123 -41
Q 819 9 494 109
L 494 744
Q 775 591 1075 516
Q 1375 441 1709 441
Q 2250 441 2565 725
Q 2881 1009 2881 1497
Q 2881 1984 2565 2268
Q 2250 2553 1709 2553
Q 1456 2553 1204 2497
Q 953 2441 691 2322
L 691 4666
z
" transform="scale(0.015625)"/>
       </defs>
       <use xlink:href="#DejaVuSans-35"/>
       <use xlink:href="#DejaVuSans-30" transform="translate(63.623047 0)"/>
      </g>
     </g>
    </g>
    <g id="xtick_3">
     <g id="line2d_5">
      <path d="M 232.101579 189.84351
L 232.101579 18.118365
" clip-path="url(#pe63850b2f9)" style="fill: none; stroke: #b0b0b0; stroke-opacity: 0.25; stroke-width: 0.8; stroke-linecap: square"/>
     </g>
     <g id="line2d_6">
      <g>
       <use xlink:href="#m465cc1db8d" x="232.101579" y="189.84351" style="stroke: #000000; stroke-width: 0.8"/>
      </g>
     </g>
     <g id="text_3">
      <!-- 100 -->
      <g transform="translate(222.557829 204.441947) scale(0.1 -0.1)">
       <defs>
        <path id="DejaVuSans-31" d="M 794 531
L 1825 531
L 1825 4091
L 703 3866
L 703 4441
L 1819 4666
L 2450 4666
L 2450 531
L 3481 531
L 3481 0
L 794 0
L 794 531
z
" transform="scale(0.015625)"/>
       </defs>
       <use xlink:href="#DejaVuSans-31"/>
       <use xlink:href="#DejaVuSans-30" transform="translate(63.623047 0)"/>
       <use xlink:href="#DejaVuSans-30" transform="translate(127.246094 0)"/>
      </g>
     </g>
    </g>
    <g id="xtick_4">
     <g id="line2d_7">
      <path d="M 308.528822 189.84351
L 308.528822 18.118365
" clip-path="url(#pe63850b2f9)" style="fill: none; stroke: #b0b0b0; stroke-opacity: 0.25; stroke-width: 0.8; stroke-linecap: square"/>
     </g>
     <g id="line2d_8">
      <g>
       <use xlink:href="#m465cc1db8d" x="308.528822" y="189.84351" style="stroke: #000000; stroke-width: 0.8"/>
      </g>
     </g>
     <g id="text_4">
      <!-- 150 -->
      <g transform="translate(298.985072 204.441947) scale(0.1 -0.1)">
       <use xlink:href="#DejaVuSans-31"/>
       <use xlink:href="#DejaVuSans-35" transform="translate(63.623047 0)"/>
       <use xlink:href="#DejaVuSans-30" transform="translate(127.246094 0)"/>
      </g>
     </g>
    </g>
    <g id="xtick_5">
     <g id="line2d_9">
      <path d="M 384.956065 189.84351
L 384.956065 18.118365
" clip-path="url(#pe63850b2f9)" style="fill: none; stroke: #b0b0b0; stroke-opacity: 0.25; stroke-width: 0.8; stroke-linecap: square"/>
     </g>
     <g id="line2d_10">
      <g>
       <use xlink:href="#m465cc1db8d" x="384.956065" y="189.84351" style="stroke: #000000; stroke-width: 0.8"/>
      </g>
     </g>
     <g id="text_5">
      <!-- 200 -->
      <g transform="translate(375.412315 204.441947) scale(0.1 -0.1)">
       <defs>
        <path id="DejaVuSans-32" d="M 1228 531
L 3431 531
L 3431 0
L 469 0
L 469 531
Q 828 903 1448 1529
Q 2069 2156 2228 2338
Q 2531 2678 2651 2914
Q 2772 3150 2772 3378
Q 2772 3750 2511 3984
Q 2250 4219 1831 4219
Q 1534 4219 1204 4116
Q 875 4013 500 3803
L 500 4441
Q 881 4594 1212 4672
Q 1544 4750 1819 4750
Q 2544 4750 2975 4387
Q 3406 4025 3406 3419
Q 3406 3131 3298 2873
Q 3191 2616 2906 2266
Q 2828 2175 2409 1742
Q 1991 1309 1228 531
z
" transform="scale(0.015625)"/>
       </defs>
       <use xlink:href="#DejaVuSans-32"/>
       <use xlink:href="#DejaVuSans-30" transform="translate(63.623047 0)"/>
       <use xlink:href="#DejaVuSans-30" transform="translate(127.246094 0)"/>
      </g>
     </g>
    </g>
    <g id="xtick_6">
     <g id="line2d_11">
      <path d="M 461.383309 189.84351
L 461.383309 18.118365
" clip-path="url(#pe63850b2f9)" style="fill: none; stroke: #b0b0b0; stroke-opacity: 0.25; stroke-width: 0.8; stroke-linecap: square"/>
     </g>
     <g id="line2d_12">
      <g>
       <use xlink:href="#m465cc1db8d" x="461.383309" y="189.84351" style="stroke: #000000; stroke-width: 0.8"/>
      </g>
     </g>
     <g id="text_6">
      <!-- 250 -->
      <g transform="translate(451.839559 204.441947) scale(0.1 -0.1)">
       <use xlink:href="#DejaVuSans-32"/>
       <use xlink:href="#DejaVuSans-35" transform="translate(63.623047 0)"/>
       <use xlink:href="#DejaVuSans-30" transform="translate(127.246094 0)"/>
      </g>
     </g>
    </g>
    <g id="xtick_7">
     <g id="line2d_13">
      <path d="M 537.810552 189.84351
L 537.810552 18.118365
" clip-path="url(#pe63850b2f9)" style="fill: none; stroke: #b0b0b0; stroke-opacity: 0.25; stroke-width: 0.8; stroke-linecap: square"/>
     </g>
     <g id="line2d_14">
      <g>
       <use xlink:href="#m465cc1db8d" x="537.810552" y="189.84351" style="stroke: #000000; stroke-width: 0.8"/>
      </g>
     </g>
     <g id="text_7">
      <!-- 300 -->
      <g transform="translate(528.266802 204.441947) scale(0.1 -0.1)">
       <defs>
        <path id="DejaVuSans-33" d="M 2597 2516
Q 3050 2419 3304 2112
Q 3559 1806 3559 1356
Q 3559 666 3084 287
Q 2609 -91 1734 -91
Q 1441 -91 1130 -33
Q 819 25 488 141
L 488 750
Q 750 597 1062 519
Q 1375 441 1716 441
Q 2309 441 2620 675
Q 2931 909 2931 1356
Q 2931 1769 2642 2001
Q 2353 2234 1838 2234
L 1294 2234
L 1294 2753
L 1863 2753
Q 2328 2753 2575 2939
Q 2822 3125 2822 3475
Q 2822 3834 2567 4026
Q 2313 4219 1838 4219
Q 1578 4219 1281 4162
Q 984 4106 628 3988
L 628 4550
Q 988 4650 1302 4700
Q 1616 4750 1894 4750
Q 2613 4750 3031 4423
Q 3450 4097 3450 3541
Q 3450 3153 3228 2886
Q 3006 2619 2597 2516
z
" transform="scale(0.015625)"/>
       </defs>
       <use xlink:href="#DejaVuSans-33"/>
       <use xlink:href="#DejaVuSans-30" transform="translate(63.623047 0)"/>
       <use xlink:href="#DejaVuSans-30" transform="translate(127.246094 0)"/>
      </g>
     </g>
    </g>
    <g id="xtick_8">
     <g id="line2d_15">
      <path d="M 614.237795 189.84351
L 614.237795 18.118365
" clip-path="url(#pe63850b2f9)" style="fill: none; stroke: #b0b0b0; stroke-opacity: 0.25; stroke-width: 0.8; stroke-linecap: square"/>
     </g>
     <g id="line2d_16">
      <g>
       <use xlink:href="#m465cc1db8d" x="614.237795" y="189.84351" style="stroke: #000000; stroke-width: 0.8"/>
      </g>
     </g>
     <g id="text_8">
      <!-- 350 -->
      <g transform="translate(604.694045 204.441947) scale(0.1 -0.1)">
       <use xlink:href="#DejaVuSans-33"/>
       <use xlink:href="#DejaVuSans-35" transform="translate(63.623047 0)"/>
       <use xlink:href="#DejaVuSans-30" transform="translate(127.246094 0)"/>
      </g>
     </g>
    </g>
    <g id="text_9">
     <!-- Electrical angle (degrees) -->
     <g transform="translate(284.59375 218.120072) scale(0.1 -0.1)">
      <defs>
       <path id="DejaVuSans-45" d="M 628 4666
L 3578 4666
L 3578 4134
L 1259 4134
L 1259 2753
L 3481 2753
L 3481 2222
L 1259 2222
L 1259 531
L 3634 531
L 3634 0
L 628 0
L 628 4666
z
" transform="scale(0.015625)"/>
       <path id="DejaVuSans-6c" d="M 603 4863
L 1178 4863
L 1178 0
L 603 0
L 603 4863
z
" transform="scale(0.015625)"/>
       <path id="DejaVuSans-65" d="M 3597 1894
L 3597 1613
L 953 1613
Q 991 1019 1311 708
Q 1631 397 2203 397
Q 2534 397 2845 478
Q 3156 559 3463 722
L 3463 178
Q 3153 47 2828 -22
Q 2503 -91 2169 -91
Q 1331 -91 842 396
Q 353 884 353 1716
Q 353 2575 817 3079
Q 1281 3584 2069 3584
Q 2775 3584 3186 3129
Q 3597 2675 3597 1894
z
M 3022 2063
Q 3016 2534 2758 2815
Q 2500 3097 2075 3097
Q 1594 3097 1305 2825
Q 1016 2553 972 2059
L 3022 2063
z
" transform="scale(0.015625)"/>
       <path id="DejaVuSans-63" d="M 3122 3366
L 3122 2828
Q 2878 2963 2633 3030
Q 2388 3097 2138 3097
Q 1578 3097 1268 2742
Q 959 2388 959 1747
Q 959 1106 1268 751
Q 1578 397 2138 397
Q 2388 397 2633 464
Q 2878 531 3122 666
L 3122 134
Q 2881 22 2623 -34
Q 2366 -91 2075 -91
Q 1284 -91 818 406
Q 353 903 353 1747
Q 353 2603 823 3093
Q 1294 3584 2113 3584
Q 2378 3584 2631 3529
Q 2884 3475 3122 3366
z
" transform="scale(0.015625)"/>
       <path id="DejaVuSans-74" d="M 1172 4494
L 1172 3500
L 2356 3500
L 2356 3053
L 1172 3053
L 1172 1153
Q 1172 725 1289 603
Q 1406 481 1766 481
L 2356 481
L 2356 0
L 1766 0
Q 1100 0 847 248
Q 594 497 594 1153
L 594 3053
L 172 3053
L 172 3500
L 594 3500
L 594 4494
L 1172 4494
z
" transform="scale(0.015625)"/>
       <path id="DejaVuSans-72" d="M 2631 2963
Q 2534 3019 2420 3045
Q 2306 3072 2169 3072
Q 1681 3072 1420 2755
Q 1159 2438 1159 1844
L 1159 0
L 581 0
L 581 3500
L 1159 3500
L 1159 2956
Q 1341 3275 1631 3429
Q 1922 3584 2338 3584
Q 2397 3584 2469 3576
Q 2541 3569 2628 3553
L 2631 2963
z
" transform="scale(0.015625)"/>
       <path id="DejaVuSans-69" d="M 603 3500
L 1178 3500
L 1178 0
L 603 0
L 603 3500
z
M 603 4863
L 1178 4863
L 1178 4134
L 603 4134
L 603 4863
z
" transform="scale(0.015625)"/>
       <path id="DejaVuSans-61" d="M 2194 1759
Q 1497 1759 1228 1600
Q 959 1441 959 1056
Q 959 750 1161 570
Q 1363 391 1709 391
Q 2188 391 2477 730
Q 2766 1069 2766 1631
L 2766 1759
L 2194 1759
z
M 3341 1997
L 3341 0
L 2766 0
L 2766 531
Q 2569 213 2275 61
Q 1981 -91 1556 -91
Q 1019 -91 701 211
Q 384 513 384 1019
Q 384 1609 779 1909
Q 1175 2209 1959 2209
L 2766 2209
L 2766 2266
Q 2766 2663 2505 2880
Q 2244 3097 1772 3097
Q 1472 3097 1187 3025
Q 903 2953 641 2809
L 641 3341
Q 956 3463 1253 3523
Q 1550 3584 1831 3584
Q 2591 3584 2966 3190
Q 3341 2797 3341 1997
z
" transform="scale(0.015625)"/>
       <path id="DejaVuSans-20" transform="scale(0.015625)"/>
       <path id="DejaVuSans-6e" d="M 3513 2113
L 3513 0
L 2938 0
L 2938 2094
Q 2938 2591 2744 2837
Q 2550 3084 2163 3084
Q 1697 3084 1428 2787
Q 1159 2491 1159 1978
L 1159 0
L 581 0
L 581 3500
L 1159 3500
L 1159 2956
Q 1366 3272 1645 3428
Q 1925 3584 2291 3584
Q 2894 3584 3203 3211
Q 3513 2838 3513 2113
z
" transform="scale(0.015625)"/>
       <path id="DejaVuSans-67" d="M 2906 1791
Q 2906 2416 2648 2759
Q 2391 3103 1925 3103
Q 1463 3103 1205 2759
Q 947 2416 947 1791
Q 947 1169 1205 825
Q 1463 481 1925 481
Q 2391 481 2648 825
Q 2906 1169 2906 1791
z
M 3481 434
Q 3481 -459 3084 -895
Q 2688 -1331 1869 -1331
Q 1566 -1331 1297 -1286
Q 1028 -1241 775 -1147
L 775 -588
Q 1028 -725 1275 -790
Q 1522 -856 1778 -856
Q 2344 -856 2625 -561
Q 2906 -266 2906 331
L 2906 616
Q 2728 306 2450 153
Q 2172 0 1784 0
Q 1141 0 747 490
Q 353 981 353 1791
Q 353 2603 747 3093
Q 1141 3584 1784 3584
Q 2172 3584 2450 3431
Q 2728 3278 2906 2969
L 2906 3500
L 3481 3500
L 3481 434
z
" transform="scale(0.015625)"/>
       <path id="DejaVuSans-28" d="M 1984 4856
Q 1566 4138 1362 3434
Q 1159 2731 1159 2009
Q 1159 1288 1364 580
Q 1569 -128 1984 -844
L 1484 -844
Q 1016 -109 783 600
Q 550 1309 550 2009
Q 550 2706 781 3412
Q 1013 4119 1484 4856
L 1984 4856
z
" transform="scale(0.015625)"/>
       <path id="DejaVuSans-64" d="M 2906 2969
L 2906 4863
L 3481 4863
L 3481 0
L 2906 0
L 2906 525
Q 2725 213 2448 61
Q 2172 -91 1784 -91
Q 1150 -91 751 415
Q 353 922 353 1747
Q 353 2572 751 3078
Q 1150 3584 1784 3584
Q 2172 3584 2448 3432
Q 2725 3281 2906 2969
z
M 947 1747
Q 947 1113 1208 752
Q 1469 391 1925 391
Q 2381 391 2643 752
Q 2906 1113 2906 1747
Q 2906 2381 2643 2742
Q 2381 3103 1925 3103
Q 1469 3103 1208 2742
Q 947 2381 947 1747
z
" transform="scale(0.015625)"/>
       <path id="DejaVuSans-73" d="M 2834 3397
L 2834 2853
Q 2591 2978 2328 3040
Q 2066 3103 1784 3103
Q 1356 3103 1142 2972
Q 928 2841 928 2578
Q 928 2378 1081 2264
Q 1234 2150 1697 2047
L 1894 2003
Q 2506 1872 2764 1633
Q 3022 1394 3022 966
Q 3022 478 2636 193
Q 2250 -91 1575 -91
Q 1294 -91 989 -36
Q 684 19 347 128
L 347 722
Q 666 556 975 473
Q 1284 391 1588 391
Q 1994 391 2212 530
Q 2431 669 2431 922
Q 2431 1156 2273 1281
Q 2116 1406 1581 1522
L 1381 1569
Q 847 1681 609 1914
Q 372 2147 372 2553
Q 372 3047 722 3315
Q 1072 3584 1716 3584
Q 2034 3584 2315 3537
Q 2597 3491 2834 3397
z
" transform="scale(0.015625)"/>
       <path id="DejaVuSans-29" d="M 513 4856
L 1013 4856
Q 1481 4119 1714 3412
Q 1947 2706 1947 2009
Q 1947 1309 1714 600
Q 1481 -109 1013 -844
L 513 -844
Q 928 -128 1133 580
Q 1338 1288 1338 2009
Q 1338 2731 1133 3434
Q 928 4138 513 4856
z
" transform="scale(0.015625)"/>
      </defs>
      <use xlink:href="#DejaVuSans-45"/>
      <use xlink:href="#DejaVuSans-6c" transform="translate(63.183594 0)"/>
      <use xlink:href="#DejaVuSans-65" transform="translate(90.966797 0)"/>
      <use xlink:href="#DejaVuSans-63" transform="translate(152.490234 0)"/>
      <use xlink:href="#DejaVuSans-74" transform="translate(207.470703 0)"/>
      <use xlink:href="#DejaVuSans-72" transform="translate(246.679688 0)"/>
      <use xlink:href="#DejaVuSans-69" transform="translate(287.792969 0)"/>
      <use xlink:href="#DejaVuSans-63" transform="translate(315.576172 0)"/>
      <use xlink:href="#DejaVuSans-61" transform="translate(370.556641 0)"/>
      <use xlink:href="#DejaVuSans-6c" transform="translate(431.835938 0)"/>
      <use xlink:href="#DejaVuSans-20" transform="translate(459.619141 0)"/>
      <use xlink:href="#DejaVuSans-61" transform="translate(491.40625 0)"/>
      <use xlink:href="#DejaVuSans-6e" transform="translate(552.685547 0)"/>
      <use xlink:href="#DejaVuSans-67" transform="translate(616.064453 0)"/>
      <use xlink:href="#DejaVuSans-6c" transform="translate(679.541016 0)"/>
      <use xlink:href="#DejaVuSans-65" transform="translate(707.324219 0)"/>
      <use xlink:href="#DejaVuSans-20" transform="translate(768.847656 0)"/>
      <use xlink:href="#DejaVuSans-28" transform="translate(800.634766 0)"/>
      <use xlink:href="#DejaVuSans-64" transform="translate(839.648438 0)"/>
      <use xlink:href="#DejaVuSans-65" transform="translate(903.125 0)"/>
      <use xlink:href="#DejaVuSans-67" transform="translate(964.648438 0)"/>
      <use xlink:href="#DejaVuSans-72" transform="translate(1028.125 0)"/>
      <use xlink:href="#DejaVuSans-65" transform="translate(1066.988281 0)"/>
      <use xlink:href="#DejaVuSans-65" transform="translate(1128.511719 0)"/>
      <use xlink:href="#DejaVuSans-73" transform="translate(1190.035156 0)"/>
      <use xlink:href="#DejaVuSans-29" transform="translate(1242.134766 0)"/>
     </g>
    </g>
   </g>
   <g id="matplotlib.axis_2">
    <g id="ytick_1">
     <g id="line2d_17">
      <path d="M 52.30649 171.310768
L 644.99976 171.310768
" clip-path="url(#pe63850b2f9)" style="fill: none; stroke: #b0b0b0; stroke-opacity: 0.25; stroke-width: 0.8; stroke-linecap: square"/>
     </g>
     <g id="line2d_18">
      <defs>
       <path id="mce0beebaa7" d="M 0 0
L -3.5 0
" style="stroke: #000000; stroke-width: 0.8"/>
      </defs>
      <g>
       <use xlink:href="#mce0beebaa7" x="52.30649" y="171.310768" style="stroke: #000000; stroke-width: 0.8"/>
      </g>
     </g>
     <g id="text_10">
      <!-- 0.225 -->
      <g transform="translate(16.678365 175.109987) scale(0.1 -0.1)">
       <defs>
        <path id="DejaVuSans-2e" d="M 684 794
L 1344 794
L 1344 0
L 684 0
L 684 794
z
" transform="scale(0.015625)"/>
       </defs>
       <use xlink:href="#DejaVuSans-30"/>
       <use xlink:href="#DejaVuSans-2e" transform="translate(63.623047 0)"/>
       <use xlink:href="#DejaVuSans-32" transform="translate(95.410156 0)"/>
       <use xlink:href="#DejaVuSans-32" transform="translate(159.033203 0)"/>
       <use xlink:href="#DejaVuSans-35" transform="translate(222.65625 0)"/>
      </g>
     </g>
    </g>
    <g id="ytick_2">
     <g id="line2d_19">
      <path d="M 52.30649 145.705418
L 644.99976 145.705418
" clip-path="url(#pe63850b2f9)" style="fill: none; stroke: #b0b0b0; stroke-opacity: 0.25; stroke-width: 0.8; stroke-linecap: square"/>
     </g>
     <g id="line2d_20">
      <g>
       <use xlink:href="#mce0beebaa7" x="52.30649" y="145.705418" style="stroke: #000000; stroke-width: 0.8"/>
      </g>
     </g>
     <g id="text_11">
      <!-- 0.250 -->
      <g transform="translate(16.678365 149.504637) scale(0.1 -0.1)">
       <use xlink:href="#DejaVuSans-30"/>
       <use xlink:href="#DejaVuSans-2e" transform="translate(63.623047 0)"/>
       <use xlink:href="#DejaVuSans-32" transform="translate(95.410156 0)"/>
       <use xlink:href="#DejaVuSans-35" transform="translate(159.033203 0)"/>
       <use xlink:href="#DejaVuSans-30" transform="translate(222.65625 0)"/>
      </g>
     </g>
    </g>
    <g id="ytick_3">
     <g id="line2d_21">
      <path d="M 52.30649 120.100068
L 644.99976 120.100068
" clip-path="url(#pe63850b2f9)" style="fill: none; stroke: #b0b0b0; stroke-opacity: 0.25; stroke-width: 0.8; stroke-linecap: square"/>
     </g>
     <g id="line2d_22">
      <g>
       <use xlink:href="#mce0beebaa7" x="52.30649" y="120.100068" style="stroke: #000000; stroke-width: 0.8"/>
      </g>
     </g>
     <g id="text_12">
      <!-- 0.275 -->
      <g transform="translate(16.678365 123.899287) scale(0.1 -0.1)">
       <defs>
        <path id="DejaVuSans-37" d="M 525 4666
L 3525 4666
L 3525 4397
L 1831 0
L 1172 0
L 2766 4134
L 525 4134
L 525 4666
z
" transform="scale(0.015625)"/>
       </defs>
       <use xlink:href="#DejaVuSans-30"/>
       <use xlink:href="#DejaVuSans-2e" transform="translate(63.623047 0)"/>
       <use xlink:href="#DejaVuSans-32" transform="translate(95.410156 0)"/>
       <use xlink:href="#DejaVuSans-37" transform="translate(159.033203 0)"/>
       <use xlink:href="#DejaVuSans-35" transform="translate(222.65625 0)"/>
      </g>
     </g>
    </g>
    <g id="ytick_4">
     <g id="line2d_23">
      <path d="M 52.30649 94.494718
L 644.99976 94.494718
" clip-path="url(#pe63850b2f9)" style="fill: none; stroke: #b0b0b0; stroke-opacity: 0.25; stroke-width: 0.8; stroke-linecap: square"/>
     </g>
     <g id="line2d_24">
      <g>
       <use xlink:href="#mce0beebaa7" x="52.30649" y="94.494718" style="stroke: #000000; stroke-width: 0.8"/>
      </g>
     </g>
     <g id="text_13">
      <!-- 0.300 -->
      <g transform="translate(16.678365 98.293937) scale(0.1 -0.1)">
       <use xlink:href="#DejaVuSans-30"/>
       <use xlink:href="#DejaVuSans-2e" transform="translate(63.623047 0)"/>
       <use xlink:href="#DejaVuSans-33" transform="translate(95.410156 0)"/>
       <use xlink:href="#DejaVuSans-30" transform="translate(159.033203 0)"/>
       <use xlink:href="#DejaVuSans-30" transform="translate(222.65625 0)"/>
      </g>
     </g>
    </g>
    <g id="ytick_5">
     <g id="line2d_25">
      <path d="M 52.30649 68.889368
L 644.99976 68.889368
" clip-path="url(#pe63850b2f9)" style="fill: none; stroke: #b0b0b0; stroke-opacity: 0.25; stroke-width: 0.8; stroke-linecap: square"/>
     </g>
     <g id="line2d_26">
      <g>
       <use xlink:href="#mce0beebaa7" x="52.30649" y="68.889368" style="stroke: #000000; stroke-width: 0.8"/>
      </g>
     </g>
     <g id="text_14">
      <!-- 0.325 -->
      <g transform="translate(16.678365 72.688587) scale(0.1 -0.1)">
       <use xlink:href="#DejaVuSans-30"/>
       <use xlink:href="#DejaVuSans-2e" transform="translate(63.623047 0)"/>
       <use xlink:href="#DejaVuSans-33" transform="translate(95.410156 0)"/>
       <use xlink:href="#DejaVuSans-32" transform="translate(159.033203 0)"/>
       <use xlink:href="#DejaVuSans-35" transform="translate(222.65625 0)"/>
      </g>
     </g>
    </g>
    <g id="ytick_6">
     <g id="line2d_27">
      <path d="M 52.30649 43.284018
L 644.99976 43.284018
" clip-path="url(#pe63850b2f9)" style="fill: none; stroke: #b0b0b0; stroke-opacity: 0.25; stroke-width: 0.8; stroke-linecap: square"/>
     </g>
     <g id="line2d_28">
      <g>
       <use xlink:href="#mce0beebaa7" x="52.30649" y="43.284018" style="stroke: #000000; stroke-width: 0.8"/>
      </g>
     </g>
     <g id="text_15">
      <!-- 0.350 -->
      <g transform="translate(16.678365 47.083237) scale(0.1 -0.1)">
       <use xlink:href="#DejaVuSans-30"/>
       <use xlink:href="#DejaVuSans-2e" transform="translate(63.623047 0)"/>
       <use xlink:href="#DejaVuSans-33" transform="translate(95.410156 0)"/>
       <use xlink:href="#DejaVuSans-35" transform="translate(159.033203 0)"/>
       <use xlink:href="#DejaVuSans-30" transform="translate(222.65625 0)"/>
      </g>
     </g>
    </g>
    <g id="text_16">
     <!-- Torque (N m) -->
     <g transform="translate(10.598677 136.322344) rotate(-90) scale(0.1 -0.1)">
      <defs>
       <path id="DejaVuSans-54" d="M -19 4666
L 3928 4666
L 3928 4134
L 2272 4134
L 2272 0
L 1638 0
L 1638 4134
L -19 4134
L -19 4666
z
" transform="scale(0.015625)"/>
       <path id="DejaVuSans-6f" d="M 1959 3097
Q 1497 3097 1228 2736
Q 959 2375 959 1747
Q 959 1119 1226 758
Q 1494 397 1959 397
Q 2419 397 2687 759
Q 2956 1122 2956 1747
Q 2956 2369 2687 2733
Q 2419 3097 1959 3097
z
M 1959 3584
Q 2709 3584 3137 3096
Q 3566 2609 3566 1747
Q 3566 888 3137 398
Q 2709 -91 1959 -91
Q 1206 -91 779 398
Q 353 888 353 1747
Q 353 2609 779 3096
Q 1206 3584 1959 3584
z
" transform="scale(0.015625)"/>
       <path id="DejaVuSans-71" d="M 947 1747
Q 947 1113 1208 752
Q 1469 391 1925 391
Q 2381 391 2643 752
Q 2906 1113 2906 1747
Q 2906 2381 2643 2742
Q 2381 3103 1925 3103
Q 1469 3103 1208 2742
Q 947 2381 947 1747
z
M 2906 525
Q 2725 213 2448 61
Q 2172 -91 1784 -91
Q 1150 -91 751 415
Q 353 922 353 1747
Q 353 2572 751 3078
Q 1150 3584 1784 3584
Q 2172 3584 2448 3432
Q 2725 3281 2906 2969
L 2906 3500
L 3481 3500
L 3481 -1331
L 2906 -1331
L 2906 525
z
" transform="scale(0.015625)"/>
       <path id="DejaVuSans-75" d="M 544 1381
L 544 3500
L 1119 3500
L 1119 1403
Q 1119 906 1312 657
Q 1506 409 1894 409
Q 2359 409 2629 706
Q 2900 1003 2900 1516
L 2900 3500
L 3475 3500
L 3475 0
L 2900 0
L 2900 538
Q 2691 219 2414 64
Q 2138 -91 1772 -91
Q 1169 -91 856 284
Q 544 659 544 1381
z
M 1991 3584
L 1991 3584
z
" transform="scale(0.015625)"/>
       <path id="DejaVuSans-4e" d="M 628 4666
L 1478 4666
L 3547 763
L 3547 4666
L 4159 4666
L 4159 0
L 3309 0
L 1241 3903
L 1241 0
L 628 0
L 628 4666
z
" transform="scale(0.015625)"/>
       <path id="DejaVuSans-6d" d="M 3328 2828
Q 3544 3216 3844 3400
Q 4144 3584 4550 3584
Q 5097 3584 5394 3201
Q 5691 2819 5691 2113
L 5691 0
L 5113 0
L 5113 2094
Q 5113 2597 4934 2840
Q 4756 3084 4391 3084
Q 3944 3084 3684 2787
Q 3425 2491 3425 1978
L 3425 0
L 2847 0
L 2847 2094
Q 2847 2600 2669 2842
Q 2491 3084 2119 3084
Q 1678 3084 1418 2786
Q 1159 2488 1159 1978
L 1159 0
L 581 0
L 581 3500
L 1159 3500
L 1159 2956
Q 1356 3278 1631 3431
Q 1906 3584 2284 3584
Q 2666 3584 2933 3390
Q 3200 3197 3328 2828
z
" transform="scale(0.015625)"/>
      </defs>
      <use xlink:href="#DejaVuSans-54"/>
      <use xlink:href="#DejaVuSans-6f" transform="translate(44.083984 0)"/>
      <use xlink:href="#DejaVuSans-72" transform="translate(105.265625 0)"/>
      <use xlink:href="#DejaVuSans-71" transform="translate(144.628906 0)"/>
      <use xlink:href="#DejaVuSans-75" transform="translate(208.105469 0)"/>
      <use xlink:href="#DejaVuSans-65" transform="translate(271.484375 0)"/>
      <use xlink:href="#DejaVuSans-20" transform="translate(333.007812 0)"/>
      <use xlink:href="#DejaVuSans-28" transform="translate(364.794922 0)"/>
      <use xlink:href="#DejaVuSans-4e" transform="translate(403.808594 0)"/>
      <use xlink:href="#DejaVuSans-20" transform="translate(478.613281 0)"/>
      <use xlink:href="#DejaVuSans-6d" transform="translate(510.400391 0)"/>
      <use xlink:href="#DejaVuSans-29" transform="translate(607.8125 0)"/>
     </g>
    </g>
   </g>
   <g id="line2d_29">
    <path d="M 79.247093 158.744637
L 90.71118 178.686244
L 102.175266 173.129908
L 113.639353 127.500226
L 125.103439 82.665237
L 136.567525 45.578549
L 148.031612 25.924053
L 159.495698 69.762324
L 170.959785 158.744637
L 182.423871 178.686244
L 193.887958 173.129908
L 205.352044 127.500226
L 216.816131 82.665237
L 228.280217 45.578549
L 239.744304 25.924053
L 251.20839 69.762324
L 262.672477 158.744637
L 274.136563 178.686244
L 285.600649 173.129908
L 297.064736 127.500226
L 308.528822 82.665237
L 319.992909 45.578549
L 331.456995 25.924053
L 342.921082 69.762324
L 354.385168 158.744637
L 365.849255 178.686244
L 377.313341 173.129908
L 388.777428 127.500226
L 400.241514 82.665237
L 411.705601 45.578549
L 423.169687 25.924053
L 434.633773 69.762324
L 446.09786 158.744637
L 457.561946 178.686244
L 469.026033 173.129908
L 480.490119 127.500226
L 491.954206 82.665237
L 503.418292 45.578549
L 514.882379 25.924053
L 526.346465 69.762324
L 537.810552 158.744637
L 549.274638 178.686244
L 560.738725 173.129908
L 572.202811 127.500226
L 583.666897 82.665237
L 595.130984 45.578549
L 606.59507 25.924053
L 618.059157 69.762324
" clip-path="url(#pe63850b2f9)" style="fill: none; stroke: #1f77b4; stroke-width: 1.4; stroke-linecap: square"/>
   </g>
   <g id="line2d_30">
    <path d="M 79.247093 158.03256
L 90.71118 177.206039
L 102.175266 176.010495
L 113.639353 126.733751
L 125.103439 81.692657
L 136.567525 44.721436
L 148.031612 27.523886
L 159.495698 70.235625
L 170.959785 157.537447
L 182.423871 178.191572
L 193.887958 174.490407
L 205.352044 128.727426
L 216.816131 83.480816
L 228.280217 45.841557
L 239.744304 26.653769
L 251.20839 70.500672
L 262.672477 158.647031
L 274.136563 181.680607
L 285.600649 176.885792
L 297.064736 126.439927
L 308.528822 84.811
L 319.992909 46.659783
L 331.456995 27.110273
L 342.921082 69.082572
L 354.385168 158.495571
L 365.849255 177.292748
L 377.313341 175.906592
L 388.777428 125.838812
L 400.241514 81.695906
L 411.705601 44.595451
L 423.169687 27.359277
L 434.633773 70.23509
L 446.09786 159.134431
L 457.561946 178.138297
L 469.026033 174.025277
L 480.490119 128.711688
L 491.954206 83.854482
L 503.418292 46.202567
L 514.882379 26.898768
L 526.346465 70.392311
L 537.810552 158.229749
L 549.274638 182.037822
L 560.738725 176.272602
L 572.202811 126.62392
L 583.666897 85.037582
L 595.130984 47.253717
L 606.59507 27.301182
L 618.059157 69.124699
" clip-path="url(#pe63850b2f9)" style="fill: none; stroke-dasharray: 5.18,2.24; stroke-dashoffset: 0; stroke: #ff7f0e; stroke-width: 1.4"/>
   </g>
   <g id="patch_3">
    <path d="M 52.30649 189.84351
L 52.30649 18.118365
" style="fill: none; stroke: #000000; stroke-width: 0.8; stroke-linejoin: miter; stroke-linecap: square"/>
   </g>
   <g id="patch_4">
    <path d="M 644.99976 189.84351
L 644.99976 18.118365
" style="fill: none; stroke: #000000; stroke-width: 0.8; stroke-linejoin: miter; stroke-linecap: square"/>
   </g>
   <g id="patch_5">
    <path d="M 52.30649 189.84351
L 644.99976 189.84351
" style="fill: none; stroke: #000000; stroke-width: 0.8; stroke-linejoin: miter; stroke-linecap: square"/>
   </g>
   <g id="patch_6">
    <path d="M 52.30649 18.118365
L 644.99976 18.118365
" style="fill: none; stroke: #000000; stroke-width: 0.8; stroke-linejoin: miter; stroke-linecap: square"/>
   </g>
   <g id="text_17">
    <!-- spm 4p12s small — protocol gates: PASS -->
    <g transform="translate(225.957812 12.118365) scale(0.12 -0.12)">
     <defs>
      <path id="DejaVuSans-70" d="M 1159 525
L 1159 -1331
L 581 -1331
L 581 3500
L 1159 3500
L 1159 2969
Q 1341 3281 1617 3432
Q 1894 3584 2278 3584
Q 2916 3584 3314 3078
Q 3713 2572 3713 1747
Q 3713 922 3314 415
Q 2916 -91 2278 -91
Q 1894 -91 1617 61
Q 1341 213 1159 525
z
M 3116 1747
Q 3116 2381 2855 2742
Q 2594 3103 2138 3103
Q 1681 3103 1420 2742
Q 1159 2381 1159 1747
Q 1159 1113 1420 752
Q 1681 391 2138 391
Q 2594 391 2855 752
Q 3116 1113 3116 1747
z
" transform="scale(0.015625)"/>
      <path id="DejaVuSans-34" d="M 2419 4116
L 825 1625
L 2419 1625
L 2419 4116
z
M 2253 4666
L 3047 4666
L 3047 1625
L 3713 1625
L 3713 1100
L 3047 1100
L 3047 0
L 2419 0
L 2419 1100
L 313 1100
L 313 1709
L 2253 4666
z
" transform="scale(0.015625)"/>
      <path id="DejaVuSans-2014" d="M 313 1978
L 6088 1978
L 6088 1528
L 313 1528
L 313 1978
z
" transform="scale(0.015625)"/>
      <path id="DejaVuSans-3a" d="M 750 794
L 1409 794
L 1409 0
L 750 0
L 750 794
z
M 750 3309
L 1409 3309
L 1409 2516
L 750 2516
L 750 3309
z
" transform="scale(0.015625)"/>
      <path id="DejaVuSans-50" d="M 1259 4147
L 1259 2394
L 2053 2394
Q 2494 2394 2734 2622
Q 2975 2850 2975 3272
Q 2975 3691 2734 3919
Q 2494 4147 2053 4147
L 1259 4147
z
M 628 4666
L 2053 4666
Q 2838 4666 3239 4311
Q 3641 3956 3641 3272
Q 3641 2581 3239 2228
Q 2838 1875 2053 1875
L 1259 1875
L 1259 0
L 628 0
L 628 4666
z
" transform="scale(0.015625)"/>
      <path id="DejaVuSans-41" d="M 2188 4044
L 1331 1722
L 3047 1722
L 2188 4044
z
M 1831 4666
L 2547 4666
L 4325 0
L 3669 0
L 3244 1197
L 1141 1197
L 716 0
L 50 0
L 1831 4666
z
" transform="scale(0.015625)"/>
      <path id="DejaVuSans-53" d="M 3425 4513
L 3425 3897
Q 3066 4069 2747 4153
Q 2428 4238 2131 4238
Q 1616 4238 1336 4038
Q 1056 3838 1056 3469
Q 1056 3159 1242 3001
Q 1428 2844 1947 2747
L 2328 2669
Q 3034 2534 3370 2195
Q 3706 1856 3706 1288
Q 3706 609 3251 259
Q 2797 -91 1919 -91
Q 1588 -91 1214 -16
Q 841 59 441 206
L 441 856
Q 825 641 1194 531
Q 1563 422 1919 422
Q 2459 422 2753 634
Q 3047 847 3047 1241
Q 3047 1584 2836 1778
Q 2625 1972 2144 2069
L 1759 2144
Q 1053 2284 737 2584
Q 422 2884 422 3419
Q 422 4038 858 4394
Q 1294 4750 2059 4750
Q 2388 4750 2728 4690
Q 3069 4631 3425 4513
z
" transform="scale(0.015625)"/>
     </defs>
     <use xlink:href="#DejaVuSans-73"/>
     <use xlink:href="#DejaVuSans-70" transform="translate(52.099609 0)"/>
     <use xlink:href="#DejaVuSans-6d" transform="translate(115.576172 0)"/>
     <use xlink:href="#DejaVuSans-20" transform="translate(212.988281 0)"/>
     <use xlink:href="#DejaVuSans-34" transform="translate(244.775391 0)"/>
     <use xlink:href="#DejaVuSans-70" transform="translate(308.398438 0)"/>
     <use xlink:href="#DejaVuSans-31" transform="translate(371.875 0)"/>
     <use xlink:href="#DejaVuSans-32" transform="translate(435.498047 0)"/>
     <use xlink:href="#DejaVuSans-73" transform="translate(499.121094 0)"/>
     <use xlink:href="#DejaVuSans-20" transform="translate(551.220703 0)"/>
     <use xlink:href="#DejaVuSans-73" transform="translate(583.007812 0)"/>
     <use xlink:href="#DejaVuSans-6d" transform="translate(635.107422 0)"/>
     <use xlink:href="#DejaVuSans-61" transform="translate(732.519531 0)"/>
     <use xlink:href="#DejaVuSans-6c" transform="translate(793.798828 0)"/>
     <use xlink:href="#DejaVuSans-6c" transform="translate(821.582031 0)"/>
     <use xlink:href="#DejaVuSans-20" transform="translate(849.365234 0)"/>
     <use xlink:href="#DejaVuSans-2014" transform="translate(881.152344 0)"/>
     <use xlink:href="#DejaVuSans-20" transform="translate(981.152344 0)"/>
     <use xlink:href="#DejaVuSans-70" transform="translate(1012.939453 0)"/>
     <use xlink:href="#DejaVuSans-72" transform="translate(1076.416016 0)"/>
     <use xlink:href="#DejaVuSans-6f" transform="translate(1115.279297 0)"/>
     <use xlink:href="#DejaVuSans-74" transform="translate(1176.460938 0)"/>
     <use xlink:href="#DejaVuSans-6f" transform="translate(1215.669922 0)"/>
     <use xlink:href="#DejaVuSans-63" transform="translate(1276.851562 0)"/>
     <use xlink:href="#DejaVuSans-6f" transform="translate(1331.832031 0)"/>
     <use xlink:href="#DejaVuSans-6c" transform="translate(1393.013672 0)"/>
     <use xlink:href="#DejaVuSans-20" transform="translate(1420.796875 0)"/>
     <use xlink:href="#DejaVuSans-67" transform="translate(1452.583984 0)"/>
     <use xlink:href="#DejaVuSans-61" transform="translate(1516.060547 0)"/>
     <use xlink:href="#DejaVuSans-74" transform="translate(1577.339844 0)"/>
     <use xlink:href="#DejaVuSans-65" transform="translate(1616.548828 0)"/>
     <use xlink:href="#DejaVuSans-73" transform="translate(1678.072266 0)"/>
     <use xlink:href="#DejaVuSans-3a" transform="translate(1730.171875 0)"/>
     <use xlink:href="#DejaVuSans-20" transform="translate(1763.863281 0)"/>
     <use xlink:href="#DejaVuSans-50" transform="translate(1795.650391 0)"/>
     <use xlink:href="#DejaVuSans-41" transform="translate(1849.578125 0)"/>
     <use xlink:href="#DejaVuSans-53" transform="translate(1917.986328 0)"/>
     <use xlink:href="#DejaVuSans-53" transform="translate(1981.462891 0)"/>
    </g>
   </g>
   <g id="legend_1">
    <g id="patch_7">
     <path d="M 548.302885 120.159062
L 637.99976 120.159062
Q 639.99976 120.159062 639.99976 118.159062
L 639.99976 89.802812
Q 639.99976 87.802812 637.99976 87.802812
L 548.302885 87.802812
Q 546.302885 87.802812 546.302885 89.802812
L 546.302885 118.159062
Q 546.302885 120.159062 548.302885 120.159062
z
" style="fill: #ffffff; opacity: 0.8; stroke: #cccccc; stroke-linejoin: miter"/>
    </g>
    <g id="line2d_31">
     <path d="M 550.302885 95.90125
L 560.302885 95.90125
L 570.302885 95.90125
" style="fill: none; stroke: #1f77b4; stroke-width: 1.4; stroke-linecap: square"/>
    </g>
    <g id="text_18">
     <!-- Magneto2D -->
     <g transform="translate(578.302885 99.40125) scale(0.1 -0.1)">
      <defs>
       <path id="DejaVuSans-4d" d="M 628 4666
L 1569 4666
L 2759 1491
L 3956 4666
L 4897 4666
L 4897 0
L 4281 0
L 4281 4097
L 3078 897
L 2444 897
L 1241 4097
L 1241 0
L 628 0
L 628 4666
z
" transform="scale(0.015625)"/>
       <path id="DejaVuSans-44" d="M 1259 4147
L 1259 519
L 2022 519
Q 2988 519 3436 956
Q 3884 1394 3884 2338
Q 3884 3275 3436 3711
Q 2988 4147 2022 4147
L 1259 4147
z
M 628 4666
L 1925 4666
Q 3281 4666 3915 4102
Q 4550 3538 4550 2338
Q 4550 1131 3912 565
Q 3275 0 1925 0
L 628 0
L 628 4666
z
" transform="scale(0.015625)"/>
      </defs>
      <use xlink:href="#DejaVuSans-4d"/>
      <use xlink:href="#DejaVuSans-61" transform="translate(86.279297 0)"/>
      <use xlink:href="#DejaVuSans-67" transform="translate(147.558594 0)"/>
      <use xlink:href="#DejaVuSans-6e" transform="translate(211.035156 0)"/>
      <use xlink:href="#DejaVuSans-65" transform="translate(274.414062 0)"/>
      <use xlink:href="#DejaVuSans-74" transform="translate(335.9375 0)"/>
      <use xlink:href="#DejaVuSans-6f" transform="translate(375.146484 0)"/>
      <use xlink:href="#DejaVuSans-32" transform="translate(436.328125 0)"/>
      <use xlink:href="#DejaVuSans-44" transform="translate(499.951172 0)"/>
     </g>
    </g>
    <g id="line2d_32">
     <path d="M 550.302885 110.579375
L 560.302885 110.579375
L 570.302885 110.579375
" style="fill: none; stroke-dasharray: 5.18,2.24; stroke-dashoffset: 0; stroke: #ff7f0e; stroke-width: 1.4"/>
    </g>
    <g id="text_19">
     <!-- FEMM -->
     <g transform="translate(578.302885 114.079375) scale(0.1 -0.1)">
      <defs>
       <path id="DejaVuSans-46" d="M 628 4666
L 3309 4666
L 3309 4134
L 1259 4134
L 1259 2759
L 3109 2759
L 3109 2228
L 1259 2228
L 1259 0
L 628 0
L 628 4666
z
" transform="scale(0.015625)"/>
      </defs>
      <use xlink:href="#DejaVuSans-46"/>
      <use xlink:href="#DejaVuSans-45" transform="translate(57.519531 0)"/>
      <use xlink:href="#DejaVuSans-4d" transform="translate(120.703125 0)"/>
      <use xlink:href="#DejaVuSans-4d" transform="translate(206.982422 0)"/>
     </g>
    </g>
   </g>
  </g>
  <g id="axes_2">
   <g id="patch_8">
    <path d="M 52.30649 413.04351
L 644.99976 413.04351
L 644.99976 241.318365
L 52.30649 241.318365
z
" style="fill: #ffffff"/>
   </g>
   <g id="matplotlib.axis_3">
    <g id="xtick_9">
     <g id="line2d_33">
      <path d="M 79.247093 413.04351
L 79.247093 241.318365
" clip-path="url(#p31b6c778cb)" style="fill: none; stroke: #b0b0b0; stroke-opacity: 0.25; stroke-width: 0.8; stroke-linecap: square"/>
     </g>
     <g id="line2d_34">
      <g>
       <use xlink:href="#m465cc1db8d" x="79.247093" y="413.04351" style="stroke: #000000; stroke-width: 0.8"/>
      </g>
     </g>
     <g id="text_20">
      <!-- 0 -->
      <g transform="translate(76.065843 427.641947) scale(0.1 -0.1)">
       <use xlink:href="#DejaVuSans-30"/>
      </g>
     </g>
    </g>
    <g id="xtick_10">
     <g id="line2d_35">
      <path d="M 155.674336 413.04351
L 155.674336 241.318365
" clip-path="url(#p31b6c778cb)" style="fill: none; stroke: #b0b0b0; stroke-opacity: 0.25; stroke-width: 0.8; stroke-linecap: square"/>
     </g>
     <g id="line2d_36">
      <g>
       <use xlink:href="#m465cc1db8d" x="155.674336" y="413.04351" style="stroke: #000000; stroke-width: 0.8"/>
      </g>
     </g>
     <g id="text_21">
      <!-- 50 -->
      <g transform="translate(149.311836 427.641947) scale(0.1 -0.1)">
       <use xlink:href="#DejaVuSans-35"/>
       <use xlink:href="#DejaVuSans-30" transform="translate(63.623047 0)"/>
      </g>
     </g>
    </g>
    <g id="xtick_11">
     <g id="line2d_37">
      <path d="M 232.101579 413.04351
L 232.101579 241.318365
" clip-path="url(#p31b6c778cb)" style="fill: none; stroke: #b0b0b0; stroke-opacity: 0.25; stroke-width: 0.8; stroke-linecap: square"/>
     </g>
     <g id="line2d_38">
      <g>
       <use xlink:href="#m465cc1db8d" x="232.101579" y="413.04351" style="stroke: #000000; stroke-width: 0.8"/>
      </g>
     </g>
     <g id="text_22">
      <!-- 100 -->
      <g transform="translate(222.557829 427.641947) scale(0.1 -0.1)">
       <use xlink:href="#DejaVuSans-31"/>
       <use xlink:href="#DejaVuSans-30" transform="translate(63.623047 0)"/>
       <use xlink:href="#DejaVuSans-30" transform="translate(127.246094 0)"/>
      </g>
     </g>
    </g>
    <g id="xtick_12">
     <g id="line2d_39">
      <path d="M 308.528822 413.04351
L 308.528822 241.318365
" clip-path="url(#p31b6c778cb)" style="fill: none; stroke: #b0b0b0; stroke-opacity: 0.25; stroke-width: 0.8; stroke-linecap: square"/>
     </g>
     <g id="line2d_40">
      <g>
       <use xlink:href="#m465cc1db8d" x="308.528822" y="413.04351" style="stroke: #000000; stroke-width: 0.8"/>
      </g>
     </g>
     <g id="text_23">
      <!-- 150 -->
      <g transform="translate(298.985072 427.641947) scale(0.1 -0.1)">
       <use xlink:href="#DejaVuSans-31"/>
       <use xlink:href="#DejaVuSans-35" transform="translate(63.623047 0)"/>
       <use xlink:href="#DejaVuSans-30" transform="translate(127.246094 0)"/>
      </g>
     </g>
    </g>
    <g id="xtick_13">
     <g id="line2d_41">
      <path d="M 384.956065 413.04351
L 384.956065 241.318365
" clip-path="url(#p31b6c778cb)" style="fill: none; stroke: #b0b0b0; stroke-opacity: 0.25; stroke-width: 0.8; stroke-linecap: square"/>
     </g>
     <g id="line2d_42">
      <g>
       <use xlink:href="#m465cc1db8d" x="384.956065" y="413.04351" style="stroke: #000000; stroke-width: 0.8"/>
      </g>
     </g>
     <g id="text_24">
      <!-- 200 -->
      <g transform="translate(375.412315 427.641947) scale(0.1 -0.1)">
       <use xlink:href="#DejaVuSans-32"/>
       <use xlink:href="#DejaVuSans-30" transform="translate(63.623047 0)"/>
       <use xlink:href="#DejaVuSans-30" transform="translate(127.246094 0)"/>
      </g>
     </g>
    </g>
    <g id="xtick_14">
     <g id="line2d_43">
      <path d="M 461.383309 413.04351
L 461.383309 241.318365
" clip-path="url(#p31b6c778cb)" style="fill: none; stroke: #b0b0b0; stroke-opacity: 0.25; stroke-width: 0.8; stroke-linecap: square"/>
     </g>
     <g id="line2d_44">
      <g>
       <use xlink:href="#m465cc1db8d" x="461.383309" y="413.04351" style="stroke: #000000; stroke-width: 0.8"/>
      </g>
     </g>
     <g id="text_25">
      <!-- 250 -->
      <g transform="translate(451.839559 427.641947) scale(0.1 -0.1)">
       <use xlink:href="#DejaVuSans-32"/>
       <use xlink:href="#DejaVuSans-35" transform="translate(63.623047 0)"/>
       <use xlink:href="#DejaVuSans-30" transform="translate(127.246094 0)"/>
      </g>
     </g>
    </g>
    <g id="xtick_15">
     <g id="line2d_45">
      <path d="M 537.810552 413.04351
L 537.810552 241.318365
" clip-path="url(#p31b6c778cb)" style="fill: none; stroke: #b0b0b0; stroke-opacity: 0.25; stroke-width: 0.8; stroke-linecap: square"/>
     </g>
     <g id="line2d_46">
      <g>
       <use xlink:href="#m465cc1db8d" x="537.810552" y="413.04351" style="stroke: #000000; stroke-width: 0.8"/>
      </g>
     </g>
     <g id="text_26">
      <!-- 300 -->
      <g transform="translate(528.266802 427.641947) scale(0.1 -0.1)">
       <use xlink:href="#DejaVuSans-33"/>
       <use xlink:href="#DejaVuSans-30" transform="translate(63.623047 0)"/>
       <use xlink:href="#DejaVuSans-30" transform="translate(127.246094 0)"/>
      </g>
     </g>
    </g>
    <g id="xtick_16">
     <g id="line2d_47">
      <path d="M 614.237795 413.04351
L 614.237795 241.318365
" clip-path="url(#p31b6c778cb)" style="fill: none; stroke: #b0b0b0; stroke-opacity: 0.25; stroke-width: 0.8; stroke-linecap: square"/>
     </g>
     <g id="line2d_48">
      <g>
       <use xlink:href="#m465cc1db8d" x="614.237795" y="413.04351" style="stroke: #000000; stroke-width: 0.8"/>
      </g>
     </g>
     <g id="text_27">
      <!-- 350 -->
      <g transform="translate(604.694045 427.641947) scale(0.1 -0.1)">
       <use xlink:href="#DejaVuSans-33"/>
       <use xlink:href="#DejaVuSans-35" transform="translate(63.623047 0)"/>
       <use xlink:href="#DejaVuSans-30" transform="translate(127.246094 0)"/>
      </g>
     </g>
    </g>
    <g id="text_28">
     <!-- Electrical angle (degrees) -->
     <g transform="translate(284.59375 441.320072) scale(0.1 -0.1)">
      <use xlink:href="#DejaVuSans-45"/>
      <use xlink:href="#DejaVuSans-6c" transform="translate(63.183594 0)"/>
      <use xlink:href="#DejaVuSans-65" transform="translate(90.966797 0)"/>
      <use xlink:href="#DejaVuSans-63" transform="translate(152.490234 0)"/>
      <use xlink:href="#DejaVuSans-74" transform="translate(207.470703 0)"/>
      <use xlink:href="#DejaVuSans-72" transform="translate(246.679688 0)"/>
      <use xlink:href="#DejaVuSans-69" transform="translate(287.792969 0)"/>
      <use xlink:href="#DejaVuSans-63" transform="translate(315.576172 0)"/>
      <use xlink:href="#DejaVuSans-61" transform="translate(370.556641 0)"/>
      <use xlink:href="#DejaVuSans-6c" transform="translate(431.835938 0)"/>
      <use xlink:href="#DejaVuSans-20" transform="translate(459.619141 0)"/>
      <use xlink:href="#DejaVuSans-61" transform="translate(491.40625 0)"/>
      <use xlink:href="#DejaVuSans-6e" transform="translate(552.685547 0)"/>
      <use xlink:href="#DejaVuSans-67" transform="translate(616.064453 0)"/>
      <use xlink:href="#DejaVuSans-6c" transform="translate(679.541016 0)"/>
      <use xlink:href="#DejaVuSans-65" transform="translate(707.324219 0)"/>
      <use xlink:href="#DejaVuSans-20" transform="translate(768.847656 0)"/>
      <use xlink:href="#DejaVuSans-28" transform="translate(800.634766 0)"/>
      <use xlink:href="#DejaVuSans-64" transform="translate(839.648438 0)"/>
      <use xlink:href="#DejaVuSans-65" transform="translate(903.125 0)"/>
      <use xlink:href="#DejaVuSans-67" transform="translate(964.648438 0)"/>
      <use xlink:href="#DejaVuSans-72" transform="translate(1028.125 0)"/>
      <use xlink:href="#DejaVuSans-65" transform="translate(1066.988281 0)"/>
      <use xlink:href="#DejaVuSans-65" transform="translate(1128.511719 0)"/>
      <use xlink:href="#DejaVuSans-73" transform="translate(1190.035156 0)"/>
      <use xlink:href="#DejaVuSans-29" transform="translate(1242.134766 0)"/>
     </g>
    </g>
   </g>
   <g id="matplotlib.axis_4">
    <g id="ytick_7">
     <g id="line2d_49">
      <path d="M 52.30649 410.799243
L 644.99976 410.799243
" clip-path="url(#p31b6c778cb)" style="fill: none; stroke: #b0b0b0; stroke-opacity: 0.25; stroke-width: 0.8; stroke-linecap: square"/>
     </g>
     <g id="line2d_50">
      <g>
       <use xlink:href="#mce0beebaa7" x="52.30649" y="410.799243" style="stroke: #000000; stroke-width: 0.8"/>
      </g>
     </g>
     <g id="text_29">
      <!-- −5 -->
      <g transform="translate(30.564302 414.598461) scale(0.1 -0.1)">
       <defs>
        <path id="DejaVuSans-2212" d="M 678 2272
L 4684 2272
L 4684 1741
L 678 1741
L 678 2272
z
" transform="scale(0.015625)"/>
       </defs>
       <use xlink:href="#DejaVuSans-2212"/>
       <use xlink:href="#DejaVuSans-35" transform="translate(83.789062 0)"/>
      </g>
     </g>
    </g>
    <g id="ytick_8">
     <g id="line2d_51">
      <path d="M 52.30649 380.613452
L 644.99976 380.613452
" clip-path="url(#p31b6c778cb)" style="fill: none; stroke: #b0b0b0; stroke-opacity: 0.25; stroke-width: 0.8; stroke-linecap: square"/>
     </g>
     <g id="line2d_52">
      <g>
       <use xlink:href="#mce0beebaa7" x="52.30649" y="380.613452" style="stroke: #000000; stroke-width: 0.8"/>
      </g>
     </g>
     <g id="text_30">
      <!-- 0 -->
      <g transform="translate(38.94399 384.412671) scale(0.1 -0.1)">
       <use xlink:href="#DejaVuSans-30"/>
      </g>
     </g>
    </g>
    <g id="ytick_9">
     <g id="line2d_53">
      <path d="M 52.30649 350.427662
L 644.99976 350.427662
" clip-path="url(#p31b6c778cb)" style="fill: none; stroke: #b0b0b0; stroke-opacity: 0.25; stroke-width: 0.8; stroke-linecap: square"/>
     </g>
     <g id="line2d_54">
      <g>
       <use xlink:href="#mce0beebaa7" x="52.30649" y="350.427662" style="stroke: #000000; stroke-width: 0.8"/>
      </g>
     </g>
     <g id="text_31">
      <!-- 5 -->
      <g transform="translate(38.94399 354.22688) scale(0.1 -0.1)">
       <use xlink:href="#DejaVuSans-35"/>
      </g>
     </g>
    </g>
    <g id="ytick_10">
     <g id="line2d_55">
      <path d="M 52.30649 320.241871
L 644.99976 320.241871
" clip-path="url(#p31b6c778cb)" style="fill: none; stroke: #b0b0b0; stroke-opacity: 0.25; stroke-width: 0.8; stroke-linecap: square"/>
     </g>
     <g id="line2d_56">
      <g>
       <use xlink:href="#mce0beebaa7" x="52.30649" y="320.241871" style="stroke: #000000; stroke-width: 0.8"/>
      </g>
     </g>
     <g id="text_32">
      <!-- 10 -->
      <g transform="translate(32.58149 324.04109) scale(0.1 -0.1)">
       <use xlink:href="#DejaVuSans-31"/>
       <use xlink:href="#DejaVuSans-30" transform="translate(63.623047 0)"/>
      </g>
     </g>
    </g>
    <g id="ytick_11">
     <g id="line2d_57">
      <path d="M 52.30649 290.056081
L 644.99976 290.056081
" clip-path="url(#p31b6c778cb)" style="fill: none; stroke: #b0b0b0; stroke-opacity: 0.25; stroke-width: 0.8; stroke-linecap: square"/>
     </g>
     <g id="line2d_58">
      <g>
       <use xlink:href="#mce0beebaa7" x="52.30649" y="290.056081" style="stroke: #000000; stroke-width: 0.8"/>
      </g>
     </g>
     <g id="text_33">
      <!-- 15 -->
      <g transform="translate(32.58149 293.855299) scale(0.1 -0.1)">
       <use xlink:href="#DejaVuSans-31"/>
       <use xlink:href="#DejaVuSans-35" transform="translate(63.623047 0)"/>
      </g>
     </g>
    </g>
    <g id="ytick_12">
     <g id="line2d_59">
      <path d="M 52.30649 259.87029
L 644.99976 259.87029
" clip-path="url(#p31b6c778cb)" style="fill: none; stroke: #b0b0b0; stroke-opacity: 0.25; stroke-width: 0.8; stroke-linecap: square"/>
     </g>
     <g id="line2d_60">
      <g>
       <use xlink:href="#mce0beebaa7" x="52.30649" y="259.87029" style="stroke: #000000; stroke-width: 0.8"/>
      </g>
     </g>
     <g id="text_34">
      <!-- 20 -->
      <g transform="translate(32.58149 263.669509) scale(0.1 -0.1)">
       <use xlink:href="#DejaVuSans-32"/>
       <use xlink:href="#DejaVuSans-30" transform="translate(63.623047 0)"/>
      </g>
     </g>
    </g>
    <g id="text_35">
     <!-- Torque (N m) -->
     <g transform="translate(24.484615 359.522344) rotate(-90) scale(0.1 -0.1)">
      <use xlink:href="#DejaVuSans-54"/>
      <use xlink:href="#DejaVuSans-6f" transform="translate(44.083984 0)"/>
      <use xlink:href="#DejaVuSans-72" transform="translate(105.265625 0)"/>
      <use xlink:href="#DejaVuSans-71" transform="translate(144.628906 0)"/>
      <use xlink:href="#DejaVuSans-75" transform="translate(208.105469 0)"/>
      <use xlink:href="#DejaVuSans-65" transform="translate(271.484375 0)"/>
      <use xlink:href="#DejaVuSans-20" transform="translate(333.007812 0)"/>
      <use xlink:href="#DejaVuSans-28" transform="translate(364.794922 0)"/>
      <use xlink:href="#DejaVuSans-4e" transform="translate(403.808594 0)"/>
      <use xlink:href="#DejaVuSans-20" transform="translate(478.613281 0)"/>
      <use xlink:href="#DejaVuSans-6d" transform="translate(510.400391 0)"/>
      <use xlink:href="#DejaVuSans-29" transform="translate(607.8125 0)"/>
     </g>
    </g>
   </g>
   <g id="line2d_61">
    <path d="M 79.247093 339.007221
L 90.71118 390.875159
L 102.175266 404.662395
L 113.639353 350.455962
L 125.103439 319.035057
L 136.567525 291.355948
L 148.031612 249.82893
L 159.495698 278.400339
L 170.959785 338.676222
L 182.423871 390.49504
L 193.887958 405.237822
L 205.352044 350.680904
L 216.816131 318.491231
L 228.280217 290.744214
L 239.744304 249.483199
L 251.20839 279.24405
L 262.672477 339.007221
L 274.136563 390.875159
L 285.600649 404.662395
L 297.064736 350.455962
L 308.528822 319.035057
L 319.992909 291.355948
L 331.456995 249.82893
L 342.921082 278.400339
L 354.385168 338.676222
L 365.849255 390.49504
L 377.313341 405.237822
L 388.777428 350.680904
L 400.241514 318.491231
L 411.705601 290.744214
L 423.169687 249.483199
L 434.633773 279.24405
L 446.09786 339.007221
L 457.561946 390.875159
L 469.026033 404.662395
L 480.490119 350.455962
L 491.954206 319.035057
L 503.418292 291.355948
L 514.882379 249.82893
L 526.346465 278.400339
L 537.810552 338.676222
L 549.274638 390.49504
L 560.738725 405.237822
L 572.202811 350.680904
L 583.666897 318.491231
L 595.130984 290.744214
L 606.59507 249.483199
L 618.059157 279.24405
" clip-path="url(#p31b6c778cb)" style="fill: none; stroke: #1f77b4; stroke-width: 1.4; stroke-linecap: square"/>
   </g>
   <g id="line2d_62">
    <path d="M 79.247093 339.104814
L 90.71118 389.26825
L 102.175266 402.903963
L 113.639353 350.37672
L 125.103439 319.347887
L 136.567525 291.07088
L 148.031612 249.45428
L 159.495698 279.321139
L 170.959785 338.571402
L 182.423871 389.352878
L 193.887958 403.142512
L 205.352044 350.339962
L 216.816131 319.19496
L 228.280217 290.206805
L 239.744304 249.124053
L 251.20839 278.211968
L 262.672477 338.357825
L 274.136563 388.75504
L 285.600649 404.238868
L 297.064736 350.845025
L 308.528822 319.554885
L 319.992909 290.924637
L 331.456995 249.69817
L 342.921082 278.230886
L 354.385168 339.112433
L 365.849255 388.966218
L 377.313341 402.890669
L 388.777428 350.430776
L 400.241514 319.344901
L 411.705601 291.071406
L 423.169687 249.465105
L 434.633773 279.303272
L 446.09786 338.384287
L 457.561946 389.356935
L 469.026033 403.120113
L 480.490119 350.335587
L 491.954206 319.19134
L 503.418292 290.278012
L 514.882379 249.137797
L 526.346465 278.218015
L 537.810552 338.349136
L 549.274638 388.72176
L 560.738725 404.247691
L 572.202811 350.850501
L 583.666897 319.537259
L 595.130984 290.849164
L 606.59507 249.69817
L 618.059157 278.238943
" clip-path="url(#p31b6c778cb)" style="fill: none; stroke-dasharray: 5.18,2.24; stroke-dashoffset: 0; stroke: #ff7f0e; stroke-width: 1.4"/>
   </g>
   <g id="patch_9">
    <path d="M 52.30649 413.04351
L 52.30649 241.318365
" style="fill: none; stroke: #000000; stroke-width: 0.8; stroke-linejoin: miter; stroke-linecap: square"/>
   </g>
   <g id="patch_10">
    <path d="M 644.99976 413.04351
L 644.99976 241.318365
" style="fill: none; stroke: #000000; stroke-width: 0.8; stroke-linejoin: miter; stroke-linecap: square"/>
   </g>
   <g id="patch_11">
    <path d="M 52.30649 413.04351
L 644.99976 413.04351
" style="fill: none; stroke: #000000; stroke-width: 0.8; stroke-linejoin: miter; stroke-linecap: square"/>
   </g>
   <g id="patch_12">
    <path d="M 52.30649 241.318365
L 644.99976 241.318365
" style="fill: none; stroke: #000000; stroke-width: 0.8; stroke-linejoin: miter; stroke-linecap: square"/>
   </g>
   <g id="text_36">
    <!-- spm 8p12s reference — protocol gates: PASS -->
    <g transform="translate(213.294062 235.318365) scale(0.12 -0.12)">
     <defs>
      <path id="DejaVuSans-38" d="M 2034 2216
Q 1584 2216 1326 1975
Q 1069 1734 1069 1313
Q 1069 891 1326 650
Q 1584 409 2034 409
Q 2484 409 2743 651
Q 3003 894 3003 1313
Q 3003 1734 2745 1975
Q 2488 2216 2034 2216
z
M 1403 2484
Q 997 2584 770 2862
Q 544 3141 544 3541
Q 544 4100 942 4425
Q 1341 4750 2034 4750
Q 2731 4750 3128 4425
Q 3525 4100 3525 3541
Q 3525 3141 3298 2862
Q 3072 2584 2669 2484
Q 3125 2378 3379 2068
Q 3634 1759 3634 1313
Q 3634 634 3220 271
Q 2806 -91 2034 -91
Q 1263 -91 848 271
Q 434 634 434 1313
Q 434 1759 690 2068
Q 947 2378 1403 2484
z
M 1172 3481
Q 1172 3119 1398 2916
Q 1625 2713 2034 2713
Q 2441 2713 2670 2916
Q 2900 3119 2900 3481
Q 2900 3844 2670 4047
Q 2441 4250 2034 4250
Q 1625 4250 1398 4047
Q 1172 3844 1172 3481
z
" transform="scale(0.015625)"/>
      <path id="DejaVuSans-66" d="M 2375 4863
L 2375 4384
L 1825 4384
Q 1516 4384 1395 4259
Q 1275 4134 1275 3809
L 1275 3500
L 2222 3500
L 2222 3053
L 1275 3053
L 1275 0
L 697 0
L 697 3053
L 147 3053
L 147 3500
L 697 3500
L 697 3744
Q 697 4328 969 4595
Q 1241 4863 1831 4863
L 2375 4863
z
" transform="scale(0.015625)"/>
     </defs>
     <use xlink:href="#DejaVuSans-73"/>
     <use xlink:href="#DejaVuSans-70" transform="translate(52.099609 0)"/>
     <use xlink:href="#DejaVuSans-6d" transform="translate(115.576172 0)"/>
     <use xlink:href="#DejaVuSans-20" transform="translate(212.988281 0)"/>
     <use xlink:href="#DejaVuSans-38" transform="translate(244.775391 0)"/>
     <use xlink:href="#DejaVuSans-70" transform="translate(308.398438 0)"/>
     <use xlink:href="#DejaVuSans-31" transform="translate(371.875 0)"/>
     <use xlink:href="#DejaVuSans-32" transform="translate(435.498047 0)"/>
     <use xlink:href="#DejaVuSans-73" transform="translate(499.121094 0)"/>
     <use xlink:href="#DejaVuSans-20" transform="translate(551.220703 0)"/>
     <use xlink:href="#DejaVuSans-72" transform="translate(583.007812 0)"/>
     <use xlink:href="#DejaVuSans-65" transform="translate(621.871094 0)"/>
     <use xlink:href="#DejaVuSans-66" transform="translate(683.394531 0)"/>
     <use xlink:href="#DejaVuSans-65" transform="translate(718.599609 0)"/>
     <use xlink:href="#DejaVuSans-72" transform="translate(780.123047 0)"/>
     <use xlink:href="#DejaVuSans-65" transform="translate(818.986328 0)"/>
     <use xlink:href="#DejaVuSans-6e" transform="translate(880.509766 0)"/>
     <use xlink:href="#DejaVuSans-63" transform="translate(943.888672 0)"/>
     <use xlink:href="#DejaVuSans-65" transform="translate(998.869141 0)"/>
     <use xlink:href="#DejaVuSans-20" transform="translate(1060.392578 0)"/>
     <use xlink:href="#DejaVuSans-2014" transform="translate(1092.179688 0)"/>
     <use xlink:href="#DejaVuSans-20" transform="translate(1192.179688 0)"/>
     <use xlink:href="#DejaVuSans-70" transform="translate(1223.966797 0)"/>
     <use xlink:href="#DejaVuSans-72" transform="translate(1287.443359 0)"/>
     <use xlink:href="#DejaVuSans-6f" transform="translate(1326.306641 0)"/>
     <use xlink:href="#DejaVuSans-74" transform="translate(1387.488281 0)"/>
     <use xlink:href="#DejaVuSans-6f" transform="translate(1426.697266 0)"/>
     <use xlink:href="#DejaVuSans-63" transform="translate(1487.878906 0)"/>
     <use xlink:href="#DejaVuSans-6f" transform="translate(1542.859375 0)"/>
     <use xlink:href="#DejaVuSans-6c" transform="translate(1604.041016 0)"/>
     <use xlink:href="#DejaVuSans-20" transform="translate(1631.824219 0)"/>
     <use xlink:href="#DejaVuSans-67" transform="translate(1663.611328 0)"/>
     <use xlink:href="#DejaVuSans-61" transform="translate(1727.087891 0)"/>
     <use xlink:href="#DejaVuSans-74" transform="translate(1788.367188 0)"/>
     <use xlink:href="#DejaVuSans-65" transform="translate(1827.576172 0)"/>
     <use xlink:href="#DejaVuSans-73" transform="translate(1889.099609 0)"/>
     <use xlink:href="#DejaVuSans-3a" transform="translate(1941.199219 0)"/>
     <use xlink:href="#DejaVuSans-20" transform="translate(1974.890625 0)"/>
     <use xlink:href="#DejaVuSans-50" transform="translate(2006.677734 0)"/>
     <use xlink:href="#DejaVuSans-41" transform="translate(2060.605469 0)"/>
     <use xlink:href="#DejaVuSans-53" transform="translate(2129.013672 0)"/>
     <use xlink:href="#DejaVuSans-53" transform="translate(2192.490234 0)"/>
    </g>
   </g>
   <g id="legend_2">
    <g id="patch_13">
     <path d="M 59.30649 278.674615
L 149.003365 278.674615
Q 151.003365 278.674615 151.003365 276.674615
L 151.003365 248.318365
Q 151.003365 246.318365 149.003365 246.318365
L 59.30649 246.318365
Q 57.30649 246.318365 57.30649 248.318365
L 57.30649 276.674615
Q 57.30649 278.674615 59.30649 278.674615
z
" style="fill: #ffffff; opacity: 0.8; stroke: #cccccc; stroke-linejoin: miter"/>
    </g>
    <g id="line2d_63">
     <path d="M 61.30649 254.416802
L 71.30649 254.416802
L 81.30649 254.416802
" style="fill: none; stroke: #1f77b4; stroke-width: 1.4; stroke-linecap: square"/>
    </g>
    <g id="text_37">
     <!-- Magneto2D -->
     <g transform="translate(89.30649 257.916802) scale(0.1 -0.1)">
      <use xlink:href="#DejaVuSans-4d"/>
      <use xlink:href="#DejaVuSans-61" transform="translate(86.279297 0)"/>
      <use xlink:href="#DejaVuSans-67" transform="translate(147.558594 0)"/>
      <use xlink:href="#DejaVuSans-6e" transform="translate(211.035156 0)"/>
      <use xlink:href="#DejaVuSans-65" transform="translate(274.414062 0)"/>
      <use xlink:href="#DejaVuSans-74" transform="translate(335.9375 0)"/>
      <use xlink:href="#DejaVuSans-6f" transform="translate(375.146484 0)"/>
      <use xlink:href="#DejaVuSans-32" transform="translate(436.328125 0)"/>
      <use xlink:href="#DejaVuSans-44" transform="translate(499.951172 0)"/>
     </g>
    </g>
    <g id="line2d_64">
     <path d="M 61.30649 269.094927
L 71.30649 269.094927
L 81.30649 269.094927
" style="fill: none; stroke-dasharray: 5.18,2.24; stroke-dashoffset: 0; stroke: #ff7f0e; stroke-width: 1.4"/>
    </g>
    <g id="text_38">
     <!-- FEMM -->
     <g transform="translate(89.30649 272.594927) scale(0.1 -0.1)">
      <use xlink:href="#DejaVuSans-46"/>
      <use xlink:href="#DejaVuSans-45" transform="translate(57.519531 0)"/>
      <use xlink:href="#DejaVuSans-4d" transform="translate(120.703125 0)"/>
      <use xlink:href="#DejaVuSans-4d" transform="translate(206.982422 0)"/>
     </g>
    </g>
   </g>
  </g>
  <g id="axes_3">
   <g id="patch_14">
    <path d="M 52.30649 636.24351
L 644.99976 636.24351
L 644.99976 464.518365
L 52.30649 464.518365
z
" style="fill: #ffffff"/>
   </g>
   <g id="matplotlib.axis_5">
    <g id="xtick_17">
     <g id="line2d_65">
      <path d="M 79.247093 636.24351
L 79.247093 464.518365
" clip-path="url(#pde9884895a)" style="fill: none; stroke: #b0b0b0; stroke-opacity: 0.25; stroke-width: 0.8; stroke-linecap: square"/>
     </g>
     <g id="line2d_66">
      <g>
       <use xlink:href="#m465cc1db8d" x="79.247093" y="636.24351" style="stroke: #000000; stroke-width: 0.8"/>
      </g>
     </g>
     <g id="text_39">
      <!-- 0 -->
      <g transform="translate(76.065843 650.841948) scale(0.1 -0.1)">
       <use xlink:href="#DejaVuSans-30"/>
      </g>
     </g>
    </g>
    <g id="xtick_18">
     <g id="line2d_67">
      <path d="M 154.869839 636.24351
L 154.869839 464.518365
" clip-path="url(#pde9884895a)" style="fill: none; stroke: #b0b0b0; stroke-opacity: 0.25; stroke-width: 0.8; stroke-linecap: square"/>
     </g>
     <g id="line2d_68">
      <g>
       <use xlink:href="#m465cc1db8d" x="154.869839" y="636.24351" style="stroke: #000000; stroke-width: 0.8"/>
      </g>
     </g>
     <g id="text_40">
      <!-- 50 -->
      <g transform="translate(148.507339 650.841948) scale(0.1 -0.1)">
       <use xlink:href="#DejaVuSans-35"/>
       <use xlink:href="#DejaVuSans-30" transform="translate(63.623047 0)"/>
      </g>
     </g>
    </g>
    <g id="xtick_19">
     <g id="line2d_69">
      <path d="M 230.492585 636.24351
L 230.492585 464.518365
" clip-path="url(#pde9884895a)" style="fill: none; stroke: #b0b0b0; stroke-opacity: 0.25; stroke-width: 0.8; stroke-linecap: square"/>
     </g>
     <g id="line2d_70">
      <g>
       <use xlink:href="#m465cc1db8d" x="230.492585" y="636.24351" style="stroke: #000000; stroke-width: 0.8"/>
      </g>
     </g>
     <g id="text_41">
      <!-- 100 -->
      <g transform="translate(220.948835 650.841948) scale(0.1 -0.1)">
       <use xlink:href="#DejaVuSans-31"/>
       <use xlink:href="#DejaVuSans-30" transform="translate(63.623047 0)"/>
       <use xlink:href="#DejaVuSans-30" transform="translate(127.246094 0)"/>
      </g>
     </g>
    </g>
    <g id="xtick_20">
     <g id="line2d_71">
      <path d="M 306.115331 636.24351
L 306.115331 464.518365
" clip-path="url(#pde9884895a)" style="fill: none; stroke: #b0b0b0; stroke-opacity: 0.25; stroke-width: 0.8; stroke-linecap: square"/>
     </g>
     <g id="line2d_72">
      <g>
       <use xlink:href="#m465cc1db8d" x="306.115331" y="636.24351" style="stroke: #000000; stroke-width: 0.8"/>
      </g>
     </g>
     <g id="text_42">
      <!-- 150 -->
      <g transform="translate(296.571581 650.841948) scale(0.1 -0.1)">
       <use xlink:href="#DejaVuSans-31"/>
       <use xlink:href="#DejaVuSans-35" transform="translate(63.623047 0)"/>
       <use xlink:href="#DejaVuSans-30" transform="translate(127.246094 0)"/>
      </g>
     </g>
    </g>
    <g id="xtick_21">
     <g id="line2d_73">
      <path d="M 381.738076 636.24351
L 381.738076 464.518365
" clip-path="url(#pde9884895a)" style="fill: none; stroke: #b0b0b0; stroke-opacity: 0.25; stroke-width: 0.8; stroke-linecap: square"/>
     </g>
     <g id="line2d_74">
      <g>
       <use xlink:href="#m465cc1db8d" x="381.738076" y="636.24351" style="stroke: #000000; stroke-width: 0.8"/>
      </g>
     </g>
     <g id="text_43">
      <!-- 200 -->
      <g transform="translate(372.194326 650.841948) scale(0.1 -0.1)">
       <use xlink:href="#DejaVuSans-32"/>
       <use xlink:href="#DejaVuSans-30" transform="translate(63.623047 0)"/>
       <use xlink:href="#DejaVuSans-30" transform="translate(127.246094 0)"/>
      </g>
     </g>
    </g>
    <g id="xtick_22">
     <g id="line2d_75">
      <path d="M 457.360822 636.24351
L 457.360822 464.518365
" clip-path="url(#pde9884895a)" style="fill: none; stroke: #b0b0b0; stroke-opacity: 0.25; stroke-width: 0.8; stroke-linecap: square"/>
     </g>
     <g id="line2d_76">
      <g>
       <use xlink:href="#m465cc1db8d" x="457.360822" y="636.24351" style="stroke: #000000; stroke-width: 0.8"/>
      </g>
     </g>
     <g id="text_44">
      <!-- 250 -->
      <g transform="translate(447.817072 650.841948) scale(0.1 -0.1)">
       <use xlink:href="#DejaVuSans-32"/>
       <use xlink:href="#DejaVuSans-35" transform="translate(63.623047 0)"/>
       <use xlink:href="#DejaVuSans-30" transform="translate(127.246094 0)"/>
      </g>
     </g>
    </g>
    <g id="xtick_23">
     <g id="line2d_77">
      <path d="M 532.983568 636.24351
L 532.983568 464.518365
" clip-path="url(#pde9884895a)" style="fill: none; stroke: #b0b0b0; stroke-opacity: 0.25; stroke-width: 0.8; stroke-linecap: square"/>
     </g>
     <g id="line2d_78">
      <g>
       <use xlink:href="#m465cc1db8d" x="532.983568" y="636.24351" style="stroke: #000000; stroke-width: 0.8"/>
      </g>
     </g>
     <g id="text_45">
      <!-- 300 -->
      <g transform="translate(523.439818 650.841948) scale(0.1 -0.1)">
       <use xlink:href="#DejaVuSans-33"/>
       <use xlink:href="#DejaVuSans-30" transform="translate(63.623047 0)"/>
       <use xlink:href="#DejaVuSans-30" transform="translate(127.246094 0)"/>
      </g>
     </g>
    </g>
    <g id="xtick_24">
     <g id="line2d_79">
      <path d="M 608.606314 636.24351
L 608.606314 464.518365
" clip-path="url(#pde9884895a)" style="fill: none; stroke: #b0b0b0; stroke-opacity: 0.25; stroke-width: 0.8; stroke-linecap: square"/>
     </g>
     <g id="line2d_80">
      <g>
       <use xlink:href="#m465cc1db8d" x="608.606314" y="636.24351" style="stroke: #000000; stroke-width: 0.8"/>
      </g>
     </g>
     <g id="text_46">
      <!-- 350 -->
      <g transform="translate(599.062564 650.841948) scale(0.1 -0.1)">
       <use xlink:href="#DejaVuSans-33"/>
       <use xlink:href="#DejaVuSans-35" transform="translate(63.623047 0)"/>
       <use xlink:href="#DejaVuSans-30" transform="translate(127.246094 0)"/>
      </g>
     </g>
    </g>
    <g id="text_47">
     <!-- Electrical angle (degrees) -->
     <g transform="translate(284.59375 664.520072) scale(0.1 -0.1)">
      <use xlink:href="#DejaVuSans-45"/>
      <use xlink:href="#DejaVuSans-6c" transform="translate(63.183594 0)"/>
      <use xlink:href="#DejaVuSans-65" transform="translate(90.966797 0)"/>
      <use xlink:href="#DejaVuSans-63" transform="translate(152.490234 0)"/>
      <use xlink:href="#DejaVuSans-74" transform="translate(207.470703 0)"/>
      <use xlink:href="#DejaVuSans-72" transform="translate(246.679688 0)"/>
      <use xlink:href="#DejaVuSans-69" transform="translate(287.792969 0)"/>
      <use xlink:href="#DejaVuSans-63" transform="translate(315.576172 0)"/>
      <use xlink:href="#DejaVuSans-61" transform="translate(370.556641 0)"/>
      <use xlink:href="#DejaVuSans-6c" transform="translate(431.835938 0)"/>
      <use xlink:href="#DejaVuSans-20" transform="translate(459.619141 0)"/>
      <use xlink:href="#DejaVuSans-61" transform="translate(491.40625 0)"/>
      <use xlink:href="#DejaVuSans-6e" transform="translate(552.685547 0)"/>
      <use xlink:href="#DejaVuSans-67" transform="translate(616.064453 0)"/>
      <use xlink:href="#DejaVuSans-6c" transform="translate(679.541016 0)"/>
      <use xlink:href="#DejaVuSans-65" transform="translate(707.324219 0)"/>
      <use xlink:href="#DejaVuSans-20" transform="translate(768.847656 0)"/>
      <use xlink:href="#DejaVuSans-28" transform="translate(800.634766 0)"/>
      <use xlink:href="#DejaVuSans-64" transform="translate(839.648438 0)"/>
      <use xlink:href="#DejaVuSans-65" transform="translate(903.125 0)"/>
      <use xlink:href="#DejaVuSans-67" transform="translate(964.648438 0)"/>
      <use xlink:href="#DejaVuSans-72" transform="translate(1028.125 0)"/>
      <use xlink:href="#DejaVuSans-65" transform="translate(1066.988281 0)"/>
      <use xlink:href="#DejaVuSans-65" transform="translate(1128.511719 0)"/>
      <use xlink:href="#DejaVuSans-73" transform="translate(1190.035156 0)"/>
      <use xlink:href="#DejaVuSans-29" transform="translate(1242.134766 0)"/>
     </g>
    </g>
   </g>
   <g id="matplotlib.axis_6">
    <g id="ytick_13">
     <g id="line2d_81">
      <path d="M 52.30649 609.40843
L 644.99976 609.40843
" clip-path="url(#pde9884895a)" style="fill: none; stroke: #b0b0b0; stroke-opacity: 0.25; stroke-width: 0.8; stroke-linecap: square"/>
     </g>
     <g id="line2d_82">
      <g>
       <use xlink:href="#mce0beebaa7" x="52.30649" y="609.40843" style="stroke: #000000; stroke-width: 0.8"/>
      </g>
     </g>
     <g id="text_48">
      <!-- 1.4 -->
      <g transform="translate(29.403365 613.207648) scale(0.1 -0.1)">
       <use xlink:href="#DejaVuSans-31"/>
       <use xlink:href="#DejaVuSans-2e" transform="translate(63.623047 0)"/>
       <use xlink:href="#DejaVuSans-34" transform="translate(95.410156 0)"/>
      </g>
     </g>
    </g>
    <g id="ytick_14">
     <g id="line2d_83">
      <path d="M 52.30649 573.74896
L 644.99976 573.74896
" clip-path="url(#pde9884895a)" style="fill: none; stroke: #b0b0b0; stroke-opacity: 0.25; stroke-width: 0.8; stroke-linecap: square"/>
     </g>
     <g id="line2d_84">
      <g>
       <use xlink:href="#mce0beebaa7" x="52.30649" y="573.74896" style="stroke: #000000; stroke-width: 0.8"/>
      </g>
     </g>
     <g id="text_49">
      <!-- 1.5 -->
      <g transform="translate(29.403365 577.548179) scale(0.1 -0.1)">
       <use xlink:href="#DejaVuSans-31"/>
       <use xlink:href="#DejaVuSans-2e" transform="translate(63.623047 0)"/>
       <use xlink:href="#DejaVuSans-35" transform="translate(95.410156 0)"/>
      </g>
     </g>
    </g>
    <g id="ytick_15">
     <g id="line2d_85">
      <path d="M 52.30649 538.089491
L 644.99976 538.089491
" clip-path="url(#pde9884895a)" style="fill: none; stroke: #b0b0b0; stroke-opacity: 0.25; stroke-width: 0.8; stroke-linecap: square"/>
     </g>
     <g id="line2d_86">
      <g>
       <use xlink:href="#mce0beebaa7" x="52.30649" y="538.089491" style="stroke: #000000; stroke-width: 0.8"/>
      </g>
     </g>
     <g id="text_50">
      <!-- 1.6 -->
      <g transform="translate(29.403365 541.888709) scale(0.1 -0.1)">
       <defs>
        <path id="DejaVuSans-36" d="M 2113 2584
Q 1688 2584 1439 2293
Q 1191 2003 1191 1497
Q 1191 994 1439 701
Q 1688 409 2113 409
Q 2538 409 2786 701
Q 3034 994 3034 1497
Q 3034 2003 2786 2293
Q 2538 2584 2113 2584
z
M 3366 4563
L 3366 3988
Q 3128 4100 2886 4159
Q 2644 4219 2406 4219
Q 1781 4219 1451 3797
Q 1122 3375 1075 2522
Q 1259 2794 1537 2939
Q 1816 3084 2150 3084
Q 2853 3084 3261 2657
Q 3669 2231 3669 1497
Q 3669 778 3244 343
Q 2819 -91 2113 -91
Q 1303 -91 875 529
Q 447 1150 447 2328
Q 447 3434 972 4092
Q 1497 4750 2381 4750
Q 2619 4750 2861 4703
Q 3103 4656 3366 4563
z
" transform="scale(0.015625)"/>
       </defs>
       <use xlink:href="#DejaVuSans-31"/>
       <use xlink:href="#DejaVuSans-2e" transform="translate(63.623047 0)"/>
       <use xlink:href="#DejaVuSans-36" transform="translate(95.410156 0)"/>
      </g>
     </g>
    </g>
    <g id="ytick_16">
     <g id="line2d_87">
      <path d="M 52.30649 502.430021
L 644.99976 502.430021
" clip-path="url(#pde9884895a)" style="fill: none; stroke: #b0b0b0; stroke-opacity: 0.25; stroke-width: 0.8; stroke-linecap: square"/>
     </g>
     <g id="line2d_88">
      <g>
       <use xlink:href="#mce0beebaa7" x="52.30649" y="502.430021" style="stroke: #000000; stroke-width: 0.8"/>
      </g>
     </g>
     <g id="text_51">
      <!-- 1.7 -->
      <g transform="translate(29.403365 506.22924) scale(0.1 -0.1)">
       <use xlink:href="#DejaVuSans-31"/>
       <use xlink:href="#DejaVuSans-2e" transform="translate(63.623047 0)"/>
       <use xlink:href="#DejaVuSans-37" transform="translate(95.410156 0)"/>
      </g>
     </g>
    </g>
    <g id="ytick_17">
     <g id="line2d_89">
      <path d="M 52.30649 466.770552
L 644.99976 466.770552
" clip-path="url(#pde9884895a)" style="fill: none; stroke: #b0b0b0; stroke-opacity: 0.25; stroke-width: 0.8; stroke-linecap: square"/>
     </g>
     <g id="line2d_90">
      <g>
       <use xlink:href="#mce0beebaa7" x="52.30649" y="466.770552" style="stroke: #000000; stroke-width: 0.8"/>
      </g>
     </g>
     <g id="text_52">
      <!-- 1.8 -->
      <g transform="translate(29.403365 470.56977) scale(0.1 -0.1)">
       <use xlink:href="#DejaVuSans-31"/>
       <use xlink:href="#DejaVuSans-2e" transform="translate(63.623047 0)"/>
       <use xlink:href="#DejaVuSans-38" transform="translate(95.410156 0)"/>
      </g>
     </g>
    </g>
    <g id="text_53">
     <!-- Torque (N m) -->
     <g transform="translate(23.323677 582.722344) rotate(-90) scale(0.1 -0.1)">
      <use xlink:href="#DejaVuSans-54"/>
      <use xlink:href="#DejaVuSans-6f" transform="translate(44.083984 0)"/>
      <use xlink:href="#DejaVuSans-72" transform="translate(105.265625 0)"/>
      <use xlink:href="#DejaVuSans-71" transform="translate(144.628906 0)"/>
      <use xlink:href="#DejaVuSans-75" transform="translate(208.105469 0)"/>
      <use xlink:href="#DejaVuSans-65" transform="translate(271.484375 0)"/>
      <use xlink:href="#DejaVuSans-20" transform="translate(333.007812 0)"/>
      <use xlink:href="#DejaVuSans-28" transform="translate(364.794922 0)"/>
      <use xlink:href="#DejaVuSans-4e" transform="translate(403.808594 0)"/>
      <use xlink:href="#DejaVuSans-20" transform="translate(478.613281 0)"/>
      <use xlink:href="#DejaVuSans-6d" transform="translate(510.400391 0)"/>
      <use xlink:href="#DejaVuSans-29" transform="translate(607.8125 0)"/>
     </g>
    </g>
   </g>
   <g id="line2d_91">
    <path d="M 79.247093 505.318189
L 84.918799 503.444043
L 90.590505 498.870918
L 96.262211 489.749138
L 101.933917 483.519823
L 107.605623 479.816855
L 113.277329 477.794152
L 118.949035 485.603423
L 124.620741 500.765754
L 130.292447 521.355167
L 135.964153 537.662578
L 141.635858 545.164575
L 147.307564 556.172307
L 152.97927 570.799014
L 158.650976 597.110569
L 164.322682 628.437822
L 169.994388 503.856107
L 175.666094 501.216188
L 181.3378 498.090627
L 187.009506 494.035211
L 192.681212 485.633112
L 198.352918 479.565885
L 204.024624 475.683656
L 209.69633 485.978559
L 215.368036 504.353306
L 221.039742 521.684099
L 226.711447 536.061021
L 232.383153 545.348778
L 238.054859 558.472393
L 243.726565 574.891117
L 249.398271 595.953995
L 255.069977 626.379635
L 260.741683 502.162262
L 266.413389 503.542816
L 272.085095 501.403826
L 277.756801 490.10705
L 283.428507 481.36376
L 289.100213 475.239489
L 294.771919 478.883513
L 300.443625 487.862116
L 306.115331 501.262153
L 311.787036 521.757348
L 317.458742 538.529595
L 323.130448 545.955857
L 328.802154 556.20047
L 334.47386 570.508757
L 340.145566 596.129399
L 345.817272 628.373452
L 351.488978 503.735965
L 357.160684 501.269123
L 362.83239 498.598503
L 368.504096 494.692379
L 374.175802 485.355028
L 379.847508 480.019057
L 385.519214 476.129313
L 391.190919 485.696509
L 396.862625 504.300987
L 402.534331 521.554297
L 408.206037 535.865829
L 413.877743 545.436313
L 419.549449 558.309439
L 425.221155 574.945635
L 430.892861 594.963006
L 436.564567 625.906776
L 442.236273 501.637245
L 447.907979 503.157458
L 453.579685 500.648423
L 459.251391 489.395194
L 464.923097 481.268714
L 470.594803 475.537312
L 476.266508 479.865667
L 481.938214 488.046885
L 487.60992 502.907204
L 493.281626 519.403904
L 498.953332 535.084553
L 504.625038 549.8392
L 510.296744 560.619996
L 515.96845 574.949164
L 521.640156 593.064406
L 527.311862 626.493795
L 532.983568 505.397267
L 538.655274 503.614885
L 544.32698 499.085873
L 549.998686 489.657796
L 555.670392 483.716452
L 561.342097 479.79028
L 567.013803 478.793311
L 572.685509 486.071161
L 578.357215 501.289921
L 584.028921 521.75545
L 589.700627 538.514412
L 595.372333 545.955874
L 601.044039 556.319794
L 606.715745 570.509425
L 612.387451 596.134722
L 618.059157 628.256079
" clip-path="url(#pde9884895a)" style="fill: none; stroke: #1f77b4; stroke-width: 1.4; stroke-linecap: square"/>
   </g>
   <g id="line2d_92">
    <path d="M 79.247093 499.763555
L 84.918799 502.068807
L 90.590505 506.903526
L 96.262211 490.796156
L 101.933917 486.296305
L 107.605623 477.944286
L 113.277329 486.705916
L 118.949035 485.183926
L 124.620741 502.443608
L 130.292447 522.153807
L 135.964153 538.99177
L 141.635858 552.497335
L 147.307564 554.876114
L 152.97927 573.874047
L 158.650976 591.386318
L 164.322682 626.914293
L 169.994388 495.614606
L 175.666094 505.506386
L 181.3378 496.258757
L 187.009506 493.931302
L 192.681212 478.651654
L 198.352918 482.800267
L 204.024624 481.09313
L 209.69633 481.765897
L 215.368036 496.726582
L 221.039742 518.251788
L 226.711447 546.029494
L 232.383153 543.245579
L 238.054859 558.18158
L 243.726565 569.581207
L 249.398271 607.103244
L 255.069977 621.568349
L 260.741683 501.378031
L 266.413389 499.588517
L 272.085095 500.045937
L 277.756801 494.00559
L 283.428507 479.261001
L 289.100213 474.730181
L 294.771919 472.324053
L 300.443625 486.795077
L 306.115331 496.440368
L 311.787036 522.286565
L 317.458742 534.256243
L 323.130448 546.654203
L 328.802154 555.093626
L 334.47386 581.081121
L 340.145566 602.739677
L 345.817272 623.818931
L 351.488978 499.953127
L 357.160684 502.068595
L 362.83239 506.984184
L 368.504096 490.796156
L 374.175802 486.296305
L 379.847508 477.940131
L 385.519214 486.793569
L 391.190919 485.020349
L 396.862625 499.969757
L 402.534331 522.12924
L 408.206037 539.018178
L 413.877743 552.514837
L 419.549449 554.622697
L 425.221155 573.874297
L 430.892861 591.685381
L 436.564567 626.913765
L 442.236273 495.698836
L 447.907979 505.536654
L 453.579685 496.281738
L 459.251391 493.922033
L 464.923097 478.59612
L 470.594803 482.816884
L 476.266508 481.087434
L 481.938214 481.757596
L 487.60992 496.726815
L 493.281626 518.248837
L 498.953332 545.946236
L 504.625038 543.143805
L 510.296744 558.599141
L 515.96845 569.584156
L 521.640156 607.103687
L 527.311862 621.622332
L 532.983568 501.311814
L 538.655274 499.588386
L 544.32698 499.383724
L 549.998686 493.935319
L 555.670392 479.260998
L 561.342097 474.732136
L 567.013803 472.524117
L 572.685509 486.913477
L 578.357215 496.370388
L 584.028921 522.2718
L 589.700627 534.256134
L 595.372333 546.649708
L 601.044039 553.893879
L 606.715745 581.080244
L 612.387451 602.699303
L 618.059157 623.818668
" clip-path="url(#pde9884895a)" style="fill: none; stroke-dasharray: 5.18,2.24; stroke-dashoffset: 0; stroke: #ff7f0e; stroke-width: 1.4"/>
   </g>
   <g id="patch_15">
    <path d="M 52.30649 636.24351
L 52.30649 464.518365
" style="fill: none; stroke: #000000; stroke-width: 0.8; stroke-linejoin: miter; stroke-linecap: square"/>
   </g>
   <g id="patch_16">
    <path d="M 644.99976 636.24351
L 644.99976 464.518365
" style="fill: none; stroke: #000000; stroke-width: 0.8; stroke-linejoin: miter; stroke-linecap: square"/>
   </g>
   <g id="patch_17">
    <path d="M 52.30649 636.24351
L 644.99976 636.24351
" style="fill: none; stroke: #000000; stroke-width: 0.8; stroke-linejoin: miter; stroke-linecap: square"/>
   </g>
   <g id="patch_18">
    <path d="M 52.30649 464.518365
L 644.99976 464.518365
" style="fill: none; stroke: #000000; stroke-width: 0.8; stroke-linejoin: miter; stroke-linecap: square"/>
   </g>
   <g id="text_54">
    <!-- spm 14p12s high pole (corrected) — protocol gates: PASS -->
    <g transform="translate(175.197812 458.518365) scale(0.12 -0.12)">
     <defs>
      <path id="DejaVuSans-68" d="M 3513 2113
L 3513 0
L 2938 0
L 2938 2094
Q 2938 2591 2744 2837
Q 2550 3084 2163 3084
Q 1697 3084 1428 2787
Q 1159 2491 1159 1978
L 1159 0
L 581 0
L 581 4863
L 1159 4863
L 1159 2956
Q 1366 3272 1645 3428
Q 1925 3584 2291 3584
Q 2894 3584 3203 3211
Q 3513 2838 3513 2113
z
" transform="scale(0.015625)"/>
     </defs>
     <use xlink:href="#DejaVuSans-73"/>
     <use xlink:href="#DejaVuSans-70" transform="translate(52.099609 0)"/>
     <use xlink:href="#DejaVuSans-6d" transform="translate(115.576172 0)"/>
     <use xlink:href="#DejaVuSans-20" transform="translate(212.988281 0)"/>
     <use xlink:href="#DejaVuSans-31" transform="translate(244.775391 0)"/>
     <use xlink:href="#DejaVuSans-34" transform="translate(308.398438 0)"/>
     <use xlink:href="#DejaVuSans-70" transform="translate(372.021484 0)"/>
     <use xlink:href="#DejaVuSans-31" transform="translate(435.498047 0)"/>
     <use xlink:href="#DejaVuSans-32" transform="translate(499.121094 0)"/>
     <use xlink:href="#DejaVuSans-73" transform="translate(562.744141 0)"/>
     <use xlink:href="#DejaVuSans-20" transform="translate(614.84375 0)"/>
     <use xlink:href="#DejaVuSans-68" transform="translate(646.630859 0)"/>
     <use xlink:href="#DejaVuSans-69" transform="translate(710.009766 0)"/>
     <use xlink:href="#DejaVuSans-67" transform="translate(737.792969 0)"/>
     <use xlink:href="#DejaVuSans-68" transform="translate(801.269531 0)"/>
     <use xlink:href="#DejaVuSans-20" transform="translate(864.648438 0)"/>
     <use xlink:href="#DejaVuSans-70" transform="translate(896.435547 0)"/>
     <use xlink:href="#DejaVuSans-6f" transform="translate(959.912109 0)"/>
     <use xlink:href="#DejaVuSans-6c" transform="translate(1021.09375 0)"/>
     <use xlink:href="#DejaVuSans-65" transform="translate(1048.876953 0)"/>
     <use xlink:href="#DejaVuSans-20" transform="translate(1110.400391 0)"/>
     <use xlink:href="#DejaVuSans-28" transform="translate(1142.1875 0)"/>
     <use xlink:href="#DejaVuSans-63" transform="translate(1181.201172 0)"/>
     <use xlink:href="#DejaVuSans-6f" transform="translate(1236.181641 0)"/>
     <use xlink:href="#DejaVuSans-72" transform="translate(1297.363281 0)"/>
     <use xlink:href="#DejaVuSans-72" transform="translate(1336.726562 0)"/>
     <use xlink:href="#DejaVuSans-65" transform="translate(1375.589844 0)"/>
     <use xlink:href="#DejaVuSans-63" transform="translate(1437.113281 0)"/>
     <use xlink:href="#DejaVuSans-74" transform="translate(1492.09375 0)"/>
     <use xlink:href="#DejaVuSans-65" transform="translate(1531.302734 0)"/>
     <use xlink:href="#DejaVuSans-64" transform="translate(1592.826172 0)"/>
     <use xlink:href="#DejaVuSans-29" transform="translate(1656.302734 0)"/>
     <use xlink:href="#DejaVuSans-20" transform="translate(1695.316406 0)"/>
     <use xlink:href="#DejaVuSans-2014" transform="translate(1727.103516 0)"/>
     <use xlink:href="#DejaVuSans-20" transform="translate(1827.103516 0)"/>
     <use xlink:href="#DejaVuSans-70" transform="translate(1858.890625 0)"/>
     <use xlink:href="#DejaVuSans-72" transform="translate(1922.367188 0)"/>
     <use xlink:href="#DejaVuSans-6f" transform="translate(1961.230469 0)"/>
     <use xlink:href="#DejaVuSans-74" transform="translate(2022.412109 0)"/>
     <use xlink:href="#DejaVuSans-6f" transform="translate(2061.621094 0)"/>
     <use xlink:href="#DejaVuSans-63" transform="translate(2122.802734 0)"/>
     <use xlink:href="#DejaVuSans-6f" transform="translate(2177.783203 0)"/>
     <use xlink:href="#DejaVuSans-6c" transform="translate(2238.964844 0)"/>
     <use xlink:href="#DejaVuSans-20" transform="translate(2266.748047 0)"/>
     <use xlink:href="#DejaVuSans-67" transform="translate(2298.535156 0)"/>
     <use xlink:href="#DejaVuSans-61" transform="translate(2362.011719 0)"/>
     <use xlink:href="#DejaVuSans-74" transform="translate(2423.291016 0)"/>
     <use xlink:href="#DejaVuSans-65" transform="translate(2462.5 0)"/>
     <use xlink:href="#DejaVuSans-73" transform="translate(2524.023438 0)"/>
     <use xlink:href="#DejaVuSans-3a" transform="translate(2576.123047 0)"/>
     <use xlink:href="#DejaVuSans-20" transform="translate(2609.814453 0)"/>
     <use xlink:href="#DejaVuSans-50" transform="translate(2641.601562 0)"/>
     <use xlink:href="#DejaVuSans-41" transform="translate(2695.529297 0)"/>
     <use xlink:href="#DejaVuSans-53" transform="translate(2763.9375 0)"/>
     <use xlink:href="#DejaVuSans-53" transform="translate(2827.414062 0)"/>
    </g>
   </g>
   <g id="legend_3">
    <g id="patch_19">
     <path d="M 59.30649 631.24351
L 149.003365 631.24351
Q 151.003365 631.24351 151.003365 629.24351
L 151.003365 600.88726
Q 151.003365 598.88726 149.003365 598.88726
L 59.30649 598.88726
Q 57.30649 598.88726 57.30649 600.88726
L 57.30649 629.24351
Q 57.30649 631.24351 59.30649 631.24351
z
" style="fill: #ffffff; opacity: 0.8; stroke: #cccccc; stroke-linejoin: miter"/>
    </g>
    <g id="line2d_93">
     <path d="M 61.30649 606.985698
L 71.30649 606.985698
L 81.30649 606.985698
" style="fill: none; stroke: #1f77b4; stroke-width: 1.4; stroke-linecap: square"/>
    </g>
    <g id="text_55">
     <!-- Magneto2D -->
     <g transform="translate(89.30649 610.485698) scale(0.1 -0.1)">
      <use xlink:href="#DejaVuSans-4d"/>
      <use xlink:href="#DejaVuSans-61" transform="translate(86.279297 0)"/>
      <use xlink:href="#DejaVuSans-67" transform="translate(147.558594 0)"/>
      <use xlink:href="#DejaVuSans-6e" transform="translate(211.035156 0)"/>
      <use xlink:href="#DejaVuSans-65" transform="translate(274.414062 0)"/>
      <use xlink:href="#DejaVuSans-74" transform="translate(335.9375 0)"/>
      <use xlink:href="#DejaVuSans-6f" transform="translate(375.146484 0)"/>
      <use xlink:href="#DejaVuSans-32" transform="translate(436.328125 0)"/>
      <use xlink:href="#DejaVuSans-44" transform="translate(499.951172 0)"/>
     </g>
    </g>
    <g id="line2d_94">
     <path d="M 61.30649 621.663823
L 71.30649 621.663823
L 81.30649 621.663823
" style="fill: none; stroke-dasharray: 5.18,2.24; stroke-dashoffset: 0; stroke: #ff7f0e; stroke-width: 1.4"/>
    </g>
    <g id="text_56">
     <!-- FEMM -->
     <g transform="translate(89.30649 625.163823) scale(0.1 -0.1)">
      <use xlink:href="#DejaVuSans-46"/>
      <use xlink:href="#DejaVuSans-45" transform="translate(57.519531 0)"/>
      <use xlink:href="#DejaVuSans-4d" transform="translate(120.703125 0)"/>
      <use xlink:href="#DejaVuSans-4d" transform="translate(206.982422 0)"/>
     </g>
    </g>
   </g>
  </g>
 </g>
 <defs>
  <clipPath id="pe63850b2f9">
   <rect x="52.30649" y="18.118365" width="592.69327" height="171.725145"/>
  </clipPath>
  <clipPath id="p31b6c778cb">
   <rect x="52.30649" y="241.318365" width="592.69327" height="171.725145"/>
  </clipPath>
  <clipPath id="pde9884895a">
   <rect x="52.30649" y="464.518365" width="592.69327" height="171.725145"/>
  </clipPath>
 </defs>
</svg>
